<svg width="894" height="894" viewBox="0 0 894 894" fill="none" xmlns="http://www.w3.org/2000/svg">
<circle cx="447" cy="447" r="447" fill="#EBEDFF"/>
<path d="M796 329.159C796 308.131 778.725 290.927 757.61 290.927H711.703L678.415 204.732C670.144 183.322 645.26 160.647 623.105 154.342C623.105 154.349 565.66 138 447 138C328.34 138 270.888 154.349 270.888 154.349C248.74 160.654 223.856 183.322 215.585 204.739L182.297 290.927H136.39C115.275 290.927 98 308.131 98 329.159C98 350.186 115.275 367.39 136.39 367.39H152.765L140.955 397.976C132.684 419.378 125.92 455.671 125.92 478.61V659.341C125.92 686.104 147.907 708 174.78 708C201.653 708 223.64 686.104 223.64 659.341V631.537H670.36V659.341C670.36 686.104 692.347 708 719.22 708C746.093 708 768.08 686.104 768.08 659.341V478.61C768.08 455.671 761.309 419.378 753.045 397.976L741.228 367.39H757.61C778.725 367.39 796 350.186 796 329.159ZM221.483 340.447L260.69 234.462C263.349 227.288 271.802 221.415 279.48 221.415H614.52C622.198 221.415 630.658 227.288 633.303 234.455L672.51 340.44C675.162 347.614 671.058 353.488 663.38 353.488H230.62C222.942 353.488 218.831 347.614 221.483 340.447ZM220.15 513.366C198.945 513.366 181.76 496.231 181.76 475.134C181.76 454.037 198.945 436.902 220.15 436.902C241.348 436.902 258.54 454.037 258.54 475.134C258.54 496.231 241.348 513.366 220.15 513.366ZM673.85 513.366C652.645 513.366 635.46 496.252 635.46 475.134C635.46 454.016 652.645 436.902 673.85 436.902C695.055 436.902 712.24 454.016 712.24 475.134C712.24 496.252 695.055 513.366 673.85 513.366Z" fill="#008CC5"/>
</svg>
