<svg width="36" height="36" viewBox="0 0 36 36" fill="none" xmlns="http://www.w3.org/2000/svg">
<path d="M18 36C27.9411 36 36 27.9411 36 18C36 8.05887 27.9411 0 18 0C8.05887 0 0 8.05887 0 18C0 27.9411 8.05887 36 18 36Z" fill="#DCF1F7"/>
<path d="M9.39241 25.8992C7.52182 25.8992 6 24.3774 6 22.5068V13.3929C6 11.5223 7.52182 10.0005 9.39241 10.0005C11.263 10.0005 12.7848 11.5223 12.7848 13.3929V22.5068C12.7848 24.3774 11.263 25.8992 9.39241 25.8992ZM9.39241 10.7093C7.91271 10.7093 6.70886 11.9132 6.70886 13.3929V22.5068C6.70886 23.9866 7.91271 25.1904 9.39241 25.1904C10.8721 25.1904 12.076 23.9866 12.076 22.5068V13.3929C12.076 11.9132 10.8721 10.7093 9.39241 10.7093Z" fill="#00B5DF"/>
<path d="M26.6077 25.8987C24.7372 25.8987 23.2153 24.3769 23.2153 22.5063V13.3924C23.2153 11.5218 24.7372 10 26.6077 10C28.4783 10 30.0001 11.5218 30.0001 13.3924V22.5063C30.0001 24.3769 28.4783 25.8987 26.6077 25.8987ZM26.6077 10.7089C25.128 10.7089 23.9242 11.9127 23.9242 13.3924V22.5063C23.9242 23.9861 25.128 25.1899 26.6077 25.1899C28.0875 25.1899 29.2913 23.9861 29.2913 22.5063V13.3924C29.2913 11.9127 28.0875 10.7089 26.6077 10.7089Z" fill="#00B5DF"/>
<path d="M20.0252 20.8354H15.9745C15.7788 20.8354 15.6201 20.6767 15.6201 20.481V16.4304C15.6201 16.2346 15.7788 16.0759 15.9745 16.0759H20.0252C20.2209 16.0759 20.3796 16.2346 20.3796 16.4304V20.481C20.3796 20.6767 20.2209 20.8354 20.0252 20.8354ZM16.329 20.1266H19.6708V16.7848H16.329V20.1266Z" fill="#00B5DF"/>
<path d="M15.9744 18.8102H12.4301C12.2344 18.8102 12.0757 18.6515 12.0757 18.4557C12.0757 18.26 12.2344 18.1013 12.4301 18.1013H15.9744C16.1702 18.1013 16.3289 18.26 16.3289 18.4557C16.3289 18.6515 16.1702 18.8102 15.9744 18.8102Z" fill="#00B5DF"/>
<path d="M23.5696 18.8102H20.0253C19.8296 18.8102 19.6709 18.6515 19.6709 18.4557C19.6709 18.26 19.8296 18.1013 20.0253 18.1013H23.5696C23.7654 18.1013 23.9241 18.26 23.9241 18.4557C23.9241 18.6515 23.7654 18.8102 23.5696 18.8102Z" fill="#00B5DF"/>
<path d="M9.39252 12.7342C9.19677 12.7342 9.03809 12.5755 9.03809 12.3797V10.3544C9.03809 10.1587 9.19677 10 9.39252 10C9.58826 10 9.74695 10.1587 9.74695 10.3544V12.3797C9.74695 12.5755 9.58826 12.7342 9.39252 12.7342Z" fill="#00B5DF"/>
<path d="M9.39203 16.7847C9.19628 16.7847 9.0376 16.6261 9.0376 16.4303V14.9113C9.0376 14.7156 9.19628 14.5569 9.39203 14.5569C9.58778 14.5569 9.74646 14.7156 9.74646 14.9113V16.4303C9.74646 16.6261 9.58778 16.7847 9.39203 16.7847Z" fill="#00B5DF"/>
<path d="M9.39203 20.8355C9.19628 20.8355 9.0376 20.6768 9.0376 20.4811V18.9621C9.0376 18.7663 9.19628 18.6077 9.39203 18.6077C9.58778 18.6077 9.74646 18.7663 9.74646 18.9621V20.4811C9.74646 20.6768 9.58778 20.8355 9.39203 20.8355Z" fill="#00B5DF"/>
<path d="M9.39203 25.8987C9.19628 25.8987 9.0376 25.74 9.0376 25.5443V23.519C9.0376 23.3232 9.19628 23.1646 9.39203 23.1646C9.58778 23.1646 9.74646 23.3232 9.74646 23.519V25.5443C9.74646 25.74 9.58778 25.8987 9.39203 25.8987Z" fill="#00B5DF"/>
<path d="M26.6078 12.7342C26.4121 12.7342 26.2534 12.5755 26.2534 12.3797V10.3544C26.2534 10.1587 26.4121 10 26.6078 10C26.8036 10 26.9623 10.1587 26.9623 10.3544V12.3797C26.9623 12.5755 26.8036 12.7342 26.6078 12.7342Z" fill="#00B5DF"/>
<path d="M26.6078 16.7847C26.4121 16.7847 26.2534 16.6261 26.2534 16.4303V14.9113C26.2534 14.7156 26.4121 14.5569 26.6078 14.5569C26.8036 14.5569 26.9623 14.7156 26.9623 14.9113V16.4303C26.9623 16.6261 26.8036 16.7847 26.6078 16.7847Z" fill="#00B5DF"/>
<path d="M26.6078 20.8355C26.4121 20.8355 26.2534 20.6768 26.2534 20.4811V18.9621C26.2534 18.7663 26.4121 18.6077 26.6078 18.6077C26.8036 18.6077 26.9623 18.7663 26.9623 18.9621V20.4811C26.9623 20.6768 26.8036 20.8355 26.6078 20.8355Z" fill="#00B5DF"/>
<path d="M26.6078 25.8987C26.4121 25.8987 26.2534 25.74 26.2534 25.5443V23.519C26.2534 23.3232 26.4121 23.1646 26.6078 23.1646C26.8036 23.1646 26.9623 23.3232 26.9623 23.519V25.5443C26.9623 25.74 26.8036 25.8987 26.6078 25.8987Z" fill="#00B5DF"/>
</svg>
