<svg width="36" height="36" viewBox="0 0 36 36" fill="none" xmlns="http://www.w3.org/2000/svg">
<path d="M18 36C27.9411 36 36 27.9411 36 18C36 8.05887 27.9411 0 18 0C8.05887 0 0 8.05887 0 18C0 27.9411 8.05887 36 18 36Z" fill="#DCF1F7"/>
<path d="M28.9589 19.3196C28.6769 19.3196 28.4011 19.4032 28.1666 19.5599C27.932 19.7167 27.7492 19.9394 27.6413 20.2C27.5333 20.4606 27.5051 20.7474 27.5601 21.024C27.6152 21.3007 27.751 21.5548 27.9504 21.7543C28.1499 21.9538 28.404 22.0896 28.6807 22.1446C28.9574 22.1996 29.2441 22.1714 29.5047 22.0635C29.7653 21.9555 29.9881 21.7727 30.1448 21.5382C30.3015 21.3036 30.3852 21.0279 30.3852 20.7458C30.3852 20.3675 30.2349 20.0048 29.9674 19.7373C29.7 19.4698 29.3372 19.3196 28.9589 19.3196ZM28.9589 21.2212C28.8649 21.2212 28.773 21.1933 28.6948 21.1411C28.6166 21.0888 28.5557 21.0146 28.5197 20.9277C28.4837 20.8409 28.4743 20.7453 28.4927 20.6531C28.511 20.5608 28.5563 20.4761 28.6228 20.4096C28.6893 20.3432 28.774 20.2979 28.8662 20.2795C28.9584 20.2612 29.054 20.2706 29.1409 20.3066C29.2277 20.3426 29.302 20.4035 29.3542 20.4817C29.4065 20.5599 29.4343 20.6518 29.4343 20.7458C29.4343 20.8719 29.3843 20.9928 29.2951 21.082C29.2059 21.1711 29.085 21.2212 28.9589 21.2212Z" fill="#00B5DF"/>
<path d="M8.9917 17.8933C8.9917 18.2694 9.10323 18.6371 9.31218 18.9498C9.52114 19.2625 9.81813 19.5063 10.1656 19.6502C10.5131 19.7941 10.8954 19.8318 11.2643 19.7584C11.6332 19.685 11.972 19.5039 12.238 19.238C12.5039 18.972 12.685 18.6332 12.7584 18.2643C12.8318 17.8954 12.7941 17.5131 12.6502 17.1656C12.5063 16.8181 12.2625 16.5211 11.9498 16.3122C11.6371 16.1032 11.2694 15.9917 10.8933 15.9917C10.389 15.9917 9.9053 16.192 9.54867 16.5487C9.19205 16.9053 8.9917 17.389 8.9917 17.8933V17.8933ZM11.8441 17.8933C11.8441 18.0814 11.7884 18.2652 11.6839 18.4216C11.5794 18.5779 11.4309 18.6998 11.2572 18.7718C11.0835 18.8437 10.8923 18.8626 10.7078 18.8259C10.5234 18.7892 10.354 18.6986 10.221 18.5657C10.088 18.4327 9.99747 18.2633 9.96078 18.0788C9.9241 17.8944 9.94292 17.7032 10.0149 17.5295C10.0869 17.3557 10.2087 17.2072 10.3651 17.1028C10.5214 16.9983 10.7053 16.9425 10.8933 16.9425C11.1455 16.9425 11.3873 17.0427 11.5657 17.221C11.744 17.3993 11.8441 17.6412 11.8441 17.8933Z" fill="#00B5DF"/>
<path d="M32.3923 19.1223C32.4331 18.8595 32.3746 18.5909 32.2283 18.3688C32.0597 18.1591 31.819 18.0198 31.5532 17.978C31.3228 17.7617 31.0665 17.5747 30.7902 17.4213C30.6664 17.1823 30.4591 16.9971 30.2078 16.9008C29.9832 16.837 29.7434 16.8539 29.5299 16.9483L14.023 11.9337C13.9003 11.7548 13.7307 11.6131 13.5329 11.5239C13.2714 11.4311 12.9875 11.4218 12.7204 11.4973C12.3736 11.3977 12.0192 11.3271 11.6607 11.2862C11.4408 11.1137 11.1727 11.0137 10.8934 11C10.6147 11.0136 10.3469 11.1133 10.1271 11.2852C9.76926 11.3272 9.41548 11.3984 9.0693 11.4982C8.8017 11.4215 8.51681 11.4303 8.25446 11.5234C8.00244 11.6432 7.79393 11.8384 7.65782 12.082C7.34506 12.2576 7.04696 12.458 6.76643 12.6815C6.48835 12.7138 6.22719 12.8318 6.01909 13.0191C5.83189 13.227 5.71409 13.488 5.68203 13.7659C5.45851 14.0464 5.25803 14.3445 5.08254 14.6573C4.83861 14.7935 4.64306 15.0022 4.52299 15.2544C4.43012 15.5167 4.42131 15.8013 4.49779 16.0688C4.39824 16.415 4.32717 16.7688 4.28528 17.1266C4.10076 17.3402 3.99948 17.6133 4 17.8956C4.00053 18.1779 4.10283 18.4506 4.28813 18.6636C4.32872 19.0213 4.39868 19.3751 4.49731 19.7213C4.42239 19.987 4.43153 20.2693 4.52346 20.5295C4.64751 20.7883 4.84974 21.0015 5.10156 21.139C5.27141 21.4405 5.46437 21.7283 5.6787 22C5.70945 22.2843 5.82849 22.5518 6.01909 22.7649C6.23106 22.9547 6.49696 23.0737 6.77974 23.1053C7.05256 23.3203 7.34168 23.5137 7.64451 23.6839C7.78184 23.9363 7.99504 24.1392 8.25398 24.2639C8.51892 24.3574 8.80645 24.3659 9.07643 24.2881C9.41673 24.3847 9.76427 24.4537 10.1157 24.4944C10.3382 24.6704 10.6101 24.7726 10.8934 24.7868C11.1428 24.7772 11.3838 24.6945 11.5866 24.5491H27.6306C27.6563 24.5641 27.6828 24.5778 27.71 24.59C27.7946 24.6173 27.883 24.6311 27.972 24.6309C28.1103 24.6278 28.247 24.6001 28.3756 24.5491H28.9589C29.1232 24.548 29.2872 24.5362 29.45 24.5139C29.6847 24.632 29.9548 24.6591 30.2083 24.59C30.4553 24.4961 30.6596 24.3154 30.783 24.0818C31.066 23.9253 31.3279 23.7336 31.5627 23.5113C31.6942 23.4962 31.8212 23.4539 31.9355 23.3873C32.0499 23.3206 32.1491 23.2309 32.2271 23.1239C32.305 23.0169 32.3599 22.8949 32.3882 22.7656C32.4166 22.6363 32.4178 22.5025 32.3918 22.3727C32.5312 22.0815 32.6325 21.7736 32.6932 21.4566C32.7901 21.3654 32.8673 21.2554 32.92 21.1333C32.9728 21.0112 33 20.8796 33 20.7466C33 20.6135 32.9728 20.4819 32.92 20.3598C32.8673 20.2377 32.7901 20.1277 32.6932 20.0365C32.6322 19.7202 32.5311 19.413 32.3923 19.1223V19.1223ZM31.4462 21.554C31.3893 21.7609 31.3786 21.9777 31.4149 22.1892C31.321 22.3489 31.2116 22.4989 31.0883 22.637C30.8737 22.6576 30.6686 22.7357 30.4947 22.863C30.3207 22.9903 30.1843 23.1622 30.0999 23.3606C29.9322 23.4338 29.7579 23.4906 29.5793 23.5303C29.3875 23.4289 29.1757 23.371 28.9589 23.3606C28.7106 23.3757 28.469 23.4468 28.252 23.5683L28.1864 23.5983H27.9553C27.9211 23.5431 27.8859 23.4813 27.8602 23.4324C27.7724 23.2031 27.6198 23.0043 27.4212 22.86C27.2226 22.7157 26.9863 22.6321 26.7411 22.6194C26.6493 22.6046 26.5585 22.5833 26.4697 22.5557C26.4709 22.464 26.4787 22.3725 26.493 22.2819C26.5403 22.0408 26.5333 21.7921 26.4725 21.554C26.3835 21.3313 26.2456 21.1315 26.0689 20.9693C25.9995 20.9001 25.9359 20.8254 25.8787 20.7458C25.9359 20.6663 25.9995 20.5915 26.0689 20.5224C26.2456 20.3602 26.3835 20.1604 26.4725 19.9377C26.5336 19.6996 26.5406 19.4509 26.493 19.2098C26.479 19.119 26.4714 19.0273 26.4702 18.9355C26.5588 18.9083 26.6492 18.8872 26.7407 18.8723C26.9859 18.8595 27.2221 18.7759 27.4208 18.6316C27.6195 18.4873 27.7722 18.2885 27.8602 18.0593C27.9021 17.9759 27.9498 17.8955 28.0029 17.8188C28.0876 17.8482 28.1704 17.8831 28.2506 17.9234C28.468 18.0451 28.7101 18.1162 28.9589 18.1311C29.1682 18.1223 29.3731 18.0682 29.5593 17.9723C29.7489 18.0133 29.9337 18.0739 30.1108 18.153C30.2025 18.3377 30.3336 18.5 30.4949 18.6284C30.6714 18.745 30.8714 18.8212 31.0807 18.8518C31.2062 18.9919 31.3176 19.144 31.4134 19.3058C31.3777 19.5157 31.3884 19.7309 31.4448 19.9362C31.5183 20.1303 31.6337 20.3058 31.7828 20.4501C31.7974 20.5482 31.807 20.6469 31.8114 20.7458C31.8114 20.8409 31.8061 20.936 31.7971 21.0259C31.6425 21.1738 31.5227 21.3542 31.4462 21.554V21.554ZM22.7786 23.1229V23.5983H21.8278V23.1229H20.877V23.5983H19.9262V23.1229H18.9754V23.5983H18.0245V23.1229H17.0737V23.5983H14.1961C14.2056 23.5821 14.217 23.5655 14.2265 23.5507C14.2876 23.4331 14.3661 23.3254 14.4595 23.2313C14.5835 23.1799 14.7146 23.1479 14.8484 23.1362C15.1864 23.1163 15.509 22.9875 15.7678 22.7692C15.9863 22.5106 16.1149 22.1882 16.1343 21.8502C16.1461 21.7164 16.1781 21.5851 16.2294 21.4609C16.3235 21.3677 16.431 21.2892 16.5484 21.2279C16.8551 21.0801 17.1054 20.8364 17.2615 20.5338C17.3635 20.2128 17.3588 19.8674 17.2482 19.5492C17.207 19.4193 17.1863 19.2838 17.1869 19.1475C17.2375 19.0271 17.3057 18.915 17.3894 18.8147C17.6183 18.5589 17.7578 18.2355 17.7868 17.8934C17.7585 17.5514 17.6196 17.2278 17.3913 16.9716C17.3077 16.8714 17.2395 16.7592 17.1893 16.6388C17.1882 16.5025 17.2087 16.3669 17.2501 16.2371C17.3604 15.9197 17.3652 15.5752 17.2639 15.2549C17.1079 14.9521 16.8576 14.7083 16.5508 14.5603C16.4333 14.4993 16.3258 14.421 16.2318 14.3278C16.1804 14.2037 16.1484 14.0724 16.1367 13.9385C16.1201 13.8301 16.0972 13.7117 16.0673 13.5924L18.1624 14.2703L18.0245 14.7367L18.9373 15.0029L19.0657 14.5656L19.969 14.8584L19.8482 15.2711L20.761 15.5378L20.877 15.1489L21.7803 15.4413L21.6752 15.8016L22.588 16.0678L22.6831 15.7351L23.5863 16.0279L23.497 16.335L24.4093 16.6012L24.491 16.3208L27.266 17.2183C27.1717 17.3396 27.0891 17.4695 27.0192 17.6063C26.9753 17.6972 26.9214 17.783 26.8586 17.862C26.7622 17.899 26.6618 17.9249 26.5595 17.939C26.2245 17.9624 25.9121 18.1168 25.69 18.3688C25.5174 18.6573 25.4661 19.0024 25.5474 19.3287C25.5659 19.4317 25.5722 19.5365 25.5664 19.641C25.5113 19.723 25.4476 19.7989 25.3762 19.8673C25.1141 20.0887 24.9495 20.4042 24.9179 20.7458C24.9502 21.0874 25.1155 21.4026 25.3781 21.6234C25.4493 21.6913 25.513 21.7665 25.5683 21.8478C25.5749 21.9528 25.5687 22.0582 25.5498 22.1616C25.4936 22.3216 25.4771 22.4929 25.5019 22.6607C25.5266 22.8285 25.5918 22.9877 25.6918 23.1247C25.7918 23.2617 25.9236 23.3723 26.0758 23.447C26.228 23.5217 26.3962 23.5583 26.5657 23.5536C26.6251 23.565 26.7083 23.5812 26.7735 23.5983H23.7294V23.1229H22.7786ZM10.5716 23.5983C10.5381 23.5877 10.5035 23.5808 10.4684 23.5778C10.2803 23.425 10.0608 23.3153 9.82568 23.2565C9.75049 23.2419 9.67406 23.2347 9.59748 23.2351C9.43693 23.2394 9.27741 23.2622 9.12207 23.3031C8.84769 23.2137 8.58052 23.1036 8.32291 22.9736C8.20802 22.7642 8.04926 22.5821 7.85749 22.4397C7.65452 22.3171 7.42752 22.2396 7.19192 22.2125C6.97038 22.0226 6.76376 21.816 6.57389 21.5944C6.54698 21.3589 6.46964 21.1319 6.34712 20.9289C6.20301 20.7355 6.01858 20.5757 5.80658 20.4606C5.6789 20.2068 5.57036 19.9438 5.48188 19.6738C5.54909 19.4423 5.56531 19.199 5.52942 18.9607C5.47057 18.7258 5.36086 18.5067 5.20805 18.3189C5.19854 18.1786 5.18856 18.036 5.18856 17.8934C5.18856 17.7508 5.19949 17.6082 5.20995 17.4655C5.36243 17.2779 5.47196 17.0592 5.53085 16.8247C5.56741 16.5831 5.55119 16.3364 5.48331 16.1016C5.57154 15.8354 5.6796 15.5762 5.80658 15.3262C6.01882 15.2105 6.20341 15.0501 6.3476 14.856C6.47246 14.648 6.5508 14.4155 6.57722 14.1743C6.76169 13.9606 6.96158 13.7607 7.17528 13.5762C7.41652 13.5502 7.64917 13.4718 7.85702 13.3466C8.05073 13.2027 8.21084 13.0185 8.32624 12.8065C8.57661 12.6792 8.83611 12.5707 9.10258 12.4818C9.33744 12.5502 9.58438 12.5664 9.82615 12.5294C10.0606 12.4708 10.2794 12.3614 10.467 12.209C10.6096 12.1985 10.7494 12.1876 10.8949 12.1876C11.0403 12.1876 11.1801 12.198 11.3204 12.2085C11.5084 12.3611 11.7277 12.4706 11.9626 12.5294C12.2039 12.5662 12.4504 12.55 12.6848 12.4818C12.8336 12.5294 12.9819 12.5812 13.1302 12.643L13.4183 12.7381C13.5427 12.9771 13.7182 13.1858 13.9322 13.3495C14.1679 13.4869 14.4311 13.5703 14.7029 13.5938C14.839 13.6048 14.9722 13.6387 15.097 13.6941C15.1526 13.8188 15.1865 13.9521 15.1973 14.0882C15.2213 14.3599 15.3047 14.623 15.4417 14.8589C15.6071 15.0744 15.8182 15.2507 16.0597 15.3752C16.1828 15.4375 16.2943 15.5207 16.3891 15.621C16.3904 15.7556 16.3705 15.8895 16.3302 16.0179C16.2478 16.2789 16.224 16.5549 16.2603 16.8261C16.329 17.0859 16.4545 17.3272 16.6278 17.5326C16.7184 17.6393 16.789 17.7615 16.836 17.8934C16.7878 18.0255 16.716 18.1478 16.624 18.2542C16.4506 18.4598 16.325 18.7012 16.256 18.9612C16.2201 19.2325 16.2441 19.5084 16.3264 19.7694C16.3674 19.8975 16.3873 20.0314 16.3853 20.1658C16.2907 20.2664 16.1792 20.3496 16.0559 20.4116C15.8143 20.5362 15.6032 20.7126 15.4379 20.9284C15.3006 21.1643 15.2172 21.4276 15.1935 21.6995C15.1827 21.8354 15.149 21.9685 15.0937 22.0931C14.9688 22.1484 14.8356 22.1821 14.6995 22.193C14.4276 22.2168 14.1643 22.3004 13.9284 22.4378C13.7129 22.6032 13.5366 22.8143 13.4121 23.0558C13.3496 23.1789 13.2665 23.2903 13.1664 23.3853C13.0318 23.3867 12.8978 23.3668 12.7694 23.3264C12.5084 23.244 12.2325 23.2201 11.9612 23.2565C11.715 23.3195 11.4857 23.4362 11.2899 23.5983H10.5716Z" fill="#00B5DF"/>
<path d="M15.6478 17.8935C15.6508 17.0074 15.4048 16.1383 14.9379 15.3852C14.4709 14.632 13.8019 14.0252 13.0069 13.6338L12.5838 14.4853C13.4199 14.8994 14.0747 15.6064 14.4234 16.4718C14.7722 17.3372 14.7907 18.3006 14.4754 19.1788C14.1601 20.0569 13.5329 20.7885 12.7133 21.2344C11.8937 21.6803 10.9388 21.8093 10.0302 21.5969C9.12165 21.3845 8.32286 20.8456 7.78581 20.0826C7.24877 19.3196 7.01093 18.3858 7.11756 17.4588C7.22419 16.5319 7.66784 15.6765 8.36411 15.0554C9.06037 14.4343 9.96067 14.0908 10.8937 14.0902V13.1394C9.95346 13.1394 9.0343 13.4182 8.2525 13.9406C7.4707 14.463 6.86136 15.2055 6.50153 16.0742C6.14171 16.9429 6.04756 17.8987 6.231 18.8209C6.41444 19.7431 6.86722 20.5902 7.53209 21.2551C8.19695 21.92 9.04405 22.3728 9.96625 22.5562C10.8884 22.7396 11.8443 22.6455 12.713 22.2857C13.5817 21.9258 14.3242 21.3165 14.8466 20.5347C15.369 19.7529 15.6478 18.8337 15.6478 17.8935V17.8935Z" fill="#00B5DF"/>
</svg>
