<svg width="36" height="36" viewBox="0 0 36 36" fill="none" xmlns="http://www.w3.org/2000/svg">
<path d="M18 36C27.9411 36 36 27.9411 36 18C36 8.05887 27.9411 0 18 0C8.05887 0 0 8.05887 0 18C0 27.9411 8.05887 36 18 36Z" fill="#DCF1F7"/>
<path d="M30.8269 24.1082L30.8269 24.1082L30.8306 24.1141C30.8624 24.1652 30.8928 24.2136 30.9216 24.2595C31.2391 24.7649 31.3742 24.9801 31.3378 25.4315L31.3362 25.4515V25.4716C31.3362 26.3785 30.5904 27.1435 29.6493 27.1435C28.7042 27.1435 27.9624 26.4019 27.9624 25.4716C27.9624 25.0058 28.1084 24.7739 28.4174 24.2831C28.4508 24.23 28.4862 24.1739 28.5234 24.1141L28.5235 24.1142L28.5271 24.1082C28.6335 23.932 28.7513 23.744 28.875 23.5468C29.1338 23.1339 29.4182 22.6803 29.677 22.2088C29.9358 22.6803 30.2202 23.1339 30.479 23.5468C30.6027 23.744 30.7205 23.932 30.8269 24.1082Z" stroke="#00B5DF"/>
<path fill-rule="evenodd" clip-rule="evenodd" d="M17.7792 7.235C23.5909 7.47451 28.2757 12.1594 28.5152 17.9711L25.0995 17.9709C24.9876 16.0629 24.1913 14.2847 22.8284 12.9218C21.4655 11.5589 19.6873 10.7626 17.7792 10.6506L17.7792 7.235ZM17.312 11.5713C19.1464 11.5715 20.8707 12.2856 22.1677 13.5826C23.4647 14.8796 24.1788 16.6039 24.1788 18.438L24.1786 18.9053L29.4592 18.9055V18.4384C29.4592 11.7403 24.0099 6.29099 17.312 6.29116L16.8447 6.29099L16.8447 11.5715L17.312 11.5713Z" fill="#00B5DF"/>
<path fill-rule="evenodd" clip-rule="evenodd" d="M20.5092 21.8483C18.6876 23.6699 15.7236 23.6699 13.902 21.8483C12.0804 20.0267 12.0804 17.0627 13.902 15.2411C15.7236 13.4195 18.6876 13.4195 20.5092 15.2411C22.3308 17.0627 22.3308 20.0267 20.5092 21.8483ZM13.2413 14.5803C11.0518 16.7698 11.0518 20.3195 13.2413 22.509C15.4307 24.6985 18.9805 24.6985 21.1699 22.509C23.3594 20.3195 23.3594 16.7698 21.1699 14.5803C18.9805 12.3909 15.4307 12.3909 13.2413 14.5803Z" fill="#00B5DF"/>
<path fill-rule="evenodd" clip-rule="evenodd" d="M17.866 19.2056C17.5016 19.57 16.9089 19.57 16.5445 19.2056C16.1801 18.8413 16.1801 18.2486 16.5445 17.8842C16.9089 17.5198 17.5016 17.5198 17.866 17.8842C18.2304 18.2486 18.2304 18.8413 17.866 19.2056ZM15.8838 17.2235C15.154 17.9532 15.154 19.1366 15.8838 19.8664C16.6136 20.5961 17.7969 20.5961 18.5267 19.8664C19.2565 19.1366 19.2565 17.9532 18.5267 17.2235C17.7969 16.4937 16.6136 16.4937 15.8838 17.2235Z" fill="#00B5DF"/>
<path fill-rule="evenodd" clip-rule="evenodd" d="M19.0221 20.3618C18.8397 20.5441 18.8397 20.8401 19.0221 21.0225C19.2045 21.2049 19.5005 21.2049 19.6828 21.0225C19.8652 20.8401 19.8652 20.5441 19.6828 20.3618C19.5005 20.1794 19.2045 20.1794 19.0221 20.3618Z" fill="#00B5DF"/>
<path fill-rule="evenodd" clip-rule="evenodd" d="M15.3884 16.7278C15.5707 16.5455 15.5707 16.2495 15.3884 16.0671C15.206 15.8847 14.91 15.8847 14.7277 16.0671C14.5453 16.2495 14.5453 16.5455 14.7277 16.7278C14.91 16.9102 15.206 16.9102 15.3884 16.7278Z" fill="#00B5DF"/>
<path fill-rule="evenodd" clip-rule="evenodd" d="M14.7277 20.3618C14.5453 20.5441 14.5453 20.8401 14.7277 21.0225C14.91 21.2049 15.206 21.2049 15.3884 21.0225C15.5707 20.8401 15.5707 20.5441 15.3884 20.3618C15.206 20.1794 14.91 20.1794 14.7277 20.3618Z" fill="#00B5DF"/>
<path fill-rule="evenodd" clip-rule="evenodd" d="M19.0221 16.0669C18.8397 16.2492 18.8397 16.5452 19.0221 16.7276C19.2045 16.9099 19.5005 16.9099 19.6828 16.7276C19.8652 16.5452 19.8652 16.2492 19.6828 16.0669C19.5005 15.8845 19.2045 15.8845 19.0221 16.0669Z" fill="#00B5DF"/>
<path fill-rule="evenodd" clip-rule="evenodd" d="M24.308 25.6473C25.973 23.9823 26.9284 21.8779 27.18 19.7076L26.2352 19.7076C25.9886 21.639 25.1275 23.5064 23.6473 24.9866C20.0951 28.5388 14.3154 28.5388 10.7632 24.9866C7.211 21.4344 7.211 15.6547 10.7632 12.1025C12.23 10.6357 14.0769 9.77628 15.9897 9.52091L15.9897 8.57608C13.8379 8.8369 11.754 9.79032 10.1025 11.4418C6.17978 15.3645 6.17978 21.7246 10.1025 25.6473C14.0252 29.57 20.3853 29.57 24.308 25.6473Z" fill="#00B5DF"/>
</svg>
