<svg width="36" height="36" viewBox="0 0 36 36" fill="none" xmlns="http://www.w3.org/2000/svg">
<circle cx="18" cy="18" r="18" fill="#DCF1F7"/>
<path d="M21.1739 8C13.3538 8 7 12.475 7 18C7 23.525 13.3538 28 21.1739 28C21.4428 28 21.6627 27.775 21.6627 27.5V8.5C21.6627 8.225 21.4428 8 21.1739 8ZM7.97751 18C7.97751 13.85 12.1319 10.35 17.7526 9.3V26.675C12.1319 25.65 7.97751 22.15 7.97751 18ZM20.6852 27C20.0254 26.975 19.3655 26.925 18.7302 26.85V9.15C19.3655 9.075 20.0254 9.025 20.6852 9V27ZM23.1534 11.85C23.2267 11.575 23.4955 11.425 23.7644 11.525L28.6519 13.025C28.9207 13.1 29.0674 13.375 28.9696 13.65C28.9207 13.85 28.7252 14 28.5053 14C28.4564 14 28.4075 14 28.3587 13.975L23.4711 12.475C23.2267 12.4 23.0801 12.125 23.1534 11.85ZM28.9696 17.15C28.9207 17.35 28.7252 17.5 28.5053 17.5C28.4564 17.5 28.4075 17.5 28.3587 17.475L23.4711 15.975C23.2023 15.9 23.0557 15.625 23.1534 15.35C23.2267 15.075 23.4955 14.925 23.7644 15.025L28.6519 16.525C28.8963 16.6 29.0429 16.875 28.9696 17.15ZM28.9696 20.65C28.9207 20.85 28.7252 21 28.5053 21C28.4564 21 28.4075 21 28.3587 20.975L23.4711 19.475C23.2023 19.4 23.0557 19.125 23.1534 18.85C23.2267 18.575 23.4955 18.425 23.7644 18.525L28.6519 20.025C28.8963 20.1 29.0429 20.375 28.9696 20.65ZM28.9696 24.15C28.9207 24.35 28.7252 24.5 28.5053 24.5C28.4564 24.5 28.4075 24.5 28.3587 24.475L23.4711 22.975C23.2023 22.9 23.0557 22.625 23.1534 22.35C23.2267 22.075 23.4955 21.925 23.7644 22.025L28.6519 23.525C28.8963 23.6 29.0429 23.875 28.9696 24.15Z" fill="#00B5DF"/>
</svg>
