<svg width="750" height="291" viewBox="0 0 750 291" fill="none" xmlns="http://www.w3.org/2000/svg">
<path d="M575.993 201.37C564.337 202.147 559.481 215.94 558.51 222.739H749.86V201.37H575.993Z" fill="white"/>
<path d="M593.477 201.37V224.739H727.519V201.37H593.477Z" fill="#0078A9"/>
<path d="M556 156C542.5 160.5 544 176 554 179.5H749.5C749.5 175.615 743.766 161.18 741.5 156H556Z" fill="white"/>
<path d="M603 155.5L591.5 180H727.5L715.5 155.5H603Z" fill="#BCECFF"/>
<path d="M627.5 155.5L614.5 180L705 181L692 155.5H627.5Z" fill="#0078A9"/>
<path d="M276.826 290.681C321.507 290.681 343 272 353 246H332.192C325.5 272.449 300 284.449 276.826 290.681Z" fill="#715751"/>
<path d="M271.97 290.681C241.859 290.681 222.432 268.34 215.633 246H332.192C332.192 265.426 300.138 290.681 271.97 290.681Z" fill="#5C463A"/>
<path d="M120.444 289.761C168.5 289.761 194.5 265.5 200.092 237.309L178.723 236.338C171.924 272.277 147.641 287.717 120.444 289.761Z" fill="#715751"/>
<path d="M116.558 167.374C82.5484 167.374 56 191.176 56 231C56 264.996 83.5336 289.761 116.558 289.761C149.583 289.761 180 266.382 180 228.5C180 197.357 154.5 167.374 116.558 167.374Z" fill="#5C463A"/>
<path d="M90.3328 257.707L146.669 201.37C160.268 218.854 159.791 244.585 146.669 257.707C133.071 271.305 106.845 273.248 90.3328 257.707Z" fill="#E3DCDC"/>
<path d="M146.669 201.37L90.3328 257.707C75.763 241.194 74.9442 215.94 89.4863 200.279C101.142 187.727 130.157 185.829 146.669 201.37Z" fill="#D0C2C0"/>
<path d="M136.956 249.936C148.612 238.281 146.669 219.826 136.956 210.112C125.3 198.456 108.788 199.428 98.1034 210.112C87.4189 220.797 87.4188 239.252 98.1034 249.936C106.845 258.678 125.3 261.592 136.956 249.936Z" fill="white"/>
<path d="M118.501 246.051C107.817 247.994 100.046 235.366 101.017 228.567L117.53 229.538V212.055C127.243 213.026 134.042 222.739 134.042 229.538H117.53L118.501 246.051Z" fill="#D0C2C0"/>
<path d="M611.826 290.307C656.507 290.307 678 271.626 688 245.626H667.192C660.5 272.075 635 284.075 611.826 290.307Z" fill="#715751"/>
<path d="M606.97 290.307C576.859 290.307 557.432 267.966 550.633 245.626H667.192C667.192 265.052 635.138 290.307 606.97 290.307Z" fill="#5C463A"/>
<path d="M455.444 289.387C503.5 289.387 529.5 265.126 535.092 236.935L513.723 235.964C506.924 271.903 482.641 287.343 455.444 289.387Z" fill="#715751"/>
<path d="M451.558 167C417.548 167 391 190.802 391 230.626C391 264.622 418.534 289.387 451.558 289.387C484.583 289.387 515 266.007 515 228.126C515 196.983 489.5 167 451.558 167Z" fill="#5C463A"/>
<path d="M425.333 257.333L481.669 200.996C495.268 218.48 494.791 244.211 481.669 257.333C468.071 270.931 441.845 272.874 425.333 257.333Z" fill="#E3DCDC"/>
<path d="M481.669 200.996L425.333 257.333C410.763 240.82 409.944 215.566 424.486 199.905C436.142 187.353 465.157 185.455 481.669 200.996Z" fill="#D0C2C0"/>
<path d="M471.956 249.562C483.612 237.907 481.669 219.451 471.956 209.738C460.3 198.082 443.788 199.054 433.103 209.738C422.419 220.423 422.419 238.878 433.103 249.562C441.845 258.304 460.3 261.218 471.956 249.562Z" fill="white"/>
<path d="M453.501 245.677C442.817 247.62 435.046 234.992 436.017 228.193L452.53 229.164V211.681C462.243 212.652 469.042 222.365 469.042 229.164H452.53L453.501 245.677Z" fill="#D0C2C0"/>
<path d="M44.5 211H0C0 231.5 11.6559 241.194 23.3117 246.051H58.2793C55.3653 246.051 46.6234 172.231 115.587 169.317C168.38 167.086 182.608 215.94 178.723 246.051H393.385C388.852 219.825 400.184 167.374 449.722 167.374C505.67 167.374 516.419 219.825 514.8 246.051C582.792 247.022 721.497 248.382 732.376 246.051C743.255 243.72 747.917 230.186 748.888 223.711H526.456C522.571 187.772 495.568 155.718 449.722 155.718C403.875 155.718 383.996 198.456 379.786 221.768L189.408 213.026C183.58 185.829 156.771 155.718 115.587 155.718C74.4032 155.718 46.4426 192.545 44.5 211Z" fill="#008CC5"/>
<path d="M0.971321 129.493L0 212.055H46.6234C54.394 180.001 79.5392 156.69 118.501 156.69C151.526 156.69 183.58 184.858 189.408 213.026L379.786 223.711C383.5 195.5 408.954 154.134 454.578 155.718C491.5 157 521.5 185 526.5 223.711H558.509C558.509 223.711 558.509 205.256 574.051 201.37H749.86V179.03H555.596C553.005 179.03 547.631 177.087 546.854 169.317C546.077 161.546 553.262 157.795 556.5 156.5C506.5 131.5 467.034 130 383.5 130V123.5L344 122.5C343.029 125.738 338.991 134.904 336.077 135.321C329.278 136.292 201.063 150.781 140.842 138.234C122.192 134.349 49.7913 102.57 14.5 88L5.82792 108.124L0.971321 129.493Z" fill="#00B5DF"/>
<path d="M569.194 101.324V124.636L614.846 123.665C618.731 121.722 625.531 115.894 625.531 108.124C625.531 100.353 621.645 91.611 613.875 88.697H580.85C580.85 88.697 575.022 88.6972 569.194 101.324Z" fill="#008CC5"/>
<path d="M64.1072 10.9915C38.8528 24.59 20.3977 71.2134 13.5985 89.6685C44.6807 112.009 136.956 143.091 191.35 145.034C219.567 146.041 303.052 140.177 337.048 135.32C343.848 131.435 344.819 123.665 344.819 123.665C344.819 123.665 325.392 117.837 324.421 109.095C323.45 100.353 328.306 93.7479 333.163 90.834C338.02 87.92 364.245 87.7257 371.045 91.611C376.484 94.7193 377.205 99.2336 378.5 101.5V131.5C433.865 128.586 533.255 143.091 556.567 156.69H742.089C733.347 137.263 709.064 114.923 682.839 112.009C670.266 110.612 401.156 112.009 401.156 112.009C386.586 88.3733 357.252 40.7138 356.475 39.1597C354.532 35.2744 354.532 21.6759 364.245 21.6759H513.829C509.943 13.9053 491.488 0.307014 479.832 0.307014H93.2468C91.9517 -0.664306 84.3106 0.11275 64.1072 10.9915Z" fill="#7CD9FF"/>
<path d="M65.0784 77.0412C66.0498 87.7257 73.1728 90.3159 76.7343 91.611L191.35 101.324L202.035 22.6472H101.017C100.046 22.6472 93.0525 25.5612 88.3902 29.4465C82.5623 34.3031 64.1071 66.3567 65.0784 77.0412Z" fill="white"/>
<path d="M223.404 22.6472L213.691 102.296L368.131 111.037C368.131 111.037 332.775 38.5769 331.22 36.2457C329.278 33.3317 322.479 22.6472 307.909 22.6472H223.404Z" fill="white"/>
<path d="M357.446 41.1023C360.554 48.0958 389.176 91.2872 403.098 112.009H604.162L513.829 22.6472H362.303C357.446 22.6472 353.561 32.3602 357.446 41.1023Z" fill="white"/>
<path d="M378.758 101.324V124.636L335.106 123.665C331.22 121.722 324.421 115.894 324.421 108.124C324.421 100.353 328.306 91.611 336.077 88.697H368.102C368.102 88.697 372.93 88.6972 378.758 101.324Z" fill="#008CC5"/>
</svg>
