<svg width="30" height="29" viewBox="0 0 30 29" fill="none" xmlns="http://www.w3.org/2000/svg">
<path d="M14.201 28.4739C6.39046 28.4739 0 22.0834 0 14.2728C0 9.47999 2.30767 5.04217 6.39046 2.37948C10.4733 -0.283215 15.4436 -0.815754 20.2365 1.3144L19.5264 2.91202C15.2661 1.13689 10.8283 1.49191 7.27803 3.79958C3.90528 6.28476 1.77513 10.19 1.77513 14.2728C1.77513 21.1958 7.27803 26.6987 14.201 26.6987C17.9288 26.6987 21.4791 25.1011 23.7867 22.2609C26.0944 19.4207 27.1595 15.6929 26.4494 11.9652L28.2245 11.6101C29.1121 15.8705 27.8695 20.1308 25.2068 23.5035C22.3666 26.5212 18.4613 28.4739 14.201 28.4739Z" fill="#808FB4"/>
<path d="M13.3138 19.953L7.27832 14.0951L8.69842 12.675L13.3138 17.4678L28.5799 0.426575L30 1.49165L13.3138 19.953Z" fill="#808FB4"/>
</svg>
