<svg width="36" height="36" viewBox="0 0 36 36" fill="none" xmlns="http://www.w3.org/2000/svg">
<path d="M18 36C27.9411 36 36 27.9411 36 18C36 8.05887 27.9411 0 18 0C8.05887 0 0 8.05887 0 18C0 27.9411 8.05887 36 18 36Z" fill="#DCF1F7"/>
<path d="M11.4004 24.2978C12.5553 24.2978 12.8796 23.6741 13.5713 23.3265C13.4631 22.9345 13.4012 22.5241 13.4012 22.0984C13.4012 22.0018 13.409 21.9072 13.4148 21.8113C12.822 22.167 12.4666 22.6987 11.4004 22.6987C9.80093 22.6987 9.80093 21.4987 8.20019 21.4987C6.59912 21.4987 6.59912 22.6987 5 22.6987V24.2978C6.59912 24.2978 6.59912 23.0988 8.20019 23.0988C9.80093 23.0988 9.80093 24.2978 11.4004 24.2978ZM17.9997 24.6985C19.4345 24.6985 20.6015 23.5339 20.6015 22.0984C20.6015 21.1789 20.1204 20.3758 19.3999 19.9141V18.6996H23.7997C24.242 18.6996 24.5993 18.3413 24.5993 17.8987C24.5993 17.4578 24.242 17.0995 23.7997 17.0995H19.3999V14.6998H23.7997C24.242 14.6998 24.5993 14.3415 24.5993 13.8993C24.5993 13.458 24.242 13.0997 23.7997 13.0997H19.3999V10.6991H23.7997C24.242 10.6991 24.5993 10.3418 24.5993 9.89953C24.5993 9.45828 24.242 9.09997 23.7997 9.09997H19.3999V6.70031H19.3804C19.282 6.02257 18.7046 5.5 17.9997 5.5C17.2947 5.5 16.719 6.02224 16.6186 6.70031H16.5991V19.9138C15.8806 20.3755 15.3998 21.1786 15.3998 22.098C15.4001 23.5339 16.5648 24.6985 17.9997 24.6985ZM24.5993 26.6984C23.0002 26.6984 23.0002 25.4981 21.4011 25.4981C19.8557 25.4981 19.7961 26.6116 17.9997 26.691C16.2036 26.6116 16.1436 25.4981 14.6006 25.4981C12.9995 25.4981 12.9995 26.6984 11.4004 26.6984C9.80093 26.6984 9.80093 25.4981 8.20019 25.4981C7.40063 25.4981 7.00085 25.7984 6.59912 26.0981V27.6979C7.00085 27.3985 7.40063 27.0979 8.20019 27.0979C9.80126 27.0979 9.80126 28.2972 11.4004 28.2972C12.9995 28.2972 12.9995 27.0979 14.6006 27.0979C16.0857 27.0979 16.1939 28.1294 17.8008 28.2791V28.2975C17.8704 28.2975 17.9342 28.2927 17.9997 28.2907C18.0671 28.2927 18.1289 28.2975 18.1986 28.2975V28.2791C19.8052 28.1294 19.9153 27.0979 21.4007 27.0979C23.0002 27.0979 23.0002 28.2972 24.599 28.2972C26.1984 28.2972 26.1984 27.0979 27.7995 27.0979C28.601 27.0979 28.9988 27.3985 29.4002 27.6979V26.0981C28.9988 25.7984 28.6007 25.4981 27.7995 25.4981C26.1987 25.4981 26.1987 26.6984 24.5993 26.6984ZM27.7998 21.4987C26.1987 21.4987 26.1987 22.6987 24.5993 22.6987C23.5331 22.6987 23.1777 22.1667 22.5848 21.8113C22.5907 21.9072 22.5984 22.0018 22.5984 22.0984C22.5984 22.5241 22.5366 22.9345 22.4287 23.3265C23.12 23.6732 23.4447 24.2978 24.5993 24.2978C26.1987 24.2978 26.1987 23.0988 27.7998 23.0988C29.4006 23.0988 29.4006 24.2978 31 24.2978V22.6987C29.4006 22.6987 29.4006 21.4987 27.7998 21.4987Z" fill="#00B5DF"/>
</svg>
