<svg width="36" height="36" viewBox="0 0 36 36" fill="none" xmlns="http://www.w3.org/2000/svg">
<path d="M18 35.9998C27.9411 35.9998 36 27.9409 36 17.9998C36 8.05863 27.9411 -0.000244141 18 -0.000244141C8.05887 -0.000244141 0 8.05863 0 17.9998C0 27.9409 8.05887 35.9998 18 35.9998Z" fill="#DCF1F7"/>
<path d="M8.5 8.83333V27.1667C8.50058 27.6527 8.69392 28.1187 9.03761 28.4624C9.3813 28.8061 9.84728 28.9994 10.3333 29H25.7333C26.2194 28.9994 26.6854 28.8061 27.0291 28.4624C27.3727 28.1187 27.5661 27.6527 27.5667 27.1667V8.83333C27.5661 8.34728 27.3727 7.8813 27.0291 7.53761C26.6854 7.19392 26.2194 7.00058 25.7333 7H10.3333C9.84728 7.00058 9.3813 7.19392 9.03761 7.53761C8.69392 7.8813 8.50058 8.34728 8.5 8.83333V8.83333ZM26.8333 8.83333V27.1667C26.8333 27.4584 26.7174 27.7382 26.5112 27.9445C26.3049 28.1508 26.0251 28.2667 25.7333 28.2667H10.3333C10.0416 28.2667 9.76181 28.1508 9.55552 27.9445C9.34923 27.7382 9.23333 27.4584 9.23333 27.1667V8.83333C9.23333 8.5416 9.34923 8.26181 9.55552 8.05552C9.76181 7.84923 10.0416 7.73333 10.3333 7.73333H25.7333C26.0251 7.73333 26.3049 7.84923 26.5112 8.05552C26.7174 8.26181 26.8333 8.5416 26.8333 8.83333V8.83333Z" fill="#00B5DF"/>
<path d="M9.9668 9.20016V26.8002C9.9668 26.8974 10.0054 26.9907 10.0742 27.0594C10.143 27.1282 10.2362 27.1668 10.3335 27.1668H25.7335C25.8307 27.1668 25.924 27.1282 25.9927 27.0594C26.0615 26.9907 26.1001 26.8974 26.1001 26.8002V9.20016C26.1001 9.10292 26.0615 9.00965 25.9927 8.94089C25.924 8.87213 25.8307 8.8335 25.7335 8.8335H10.3335C10.2362 8.8335 10.143 8.87213 10.0742 8.94089C10.0054 9.00965 9.9668 9.10292 9.9668 9.20016ZM17.6668 13.9668V14.7002H10.7001V13.9668H17.6668ZM10.7001 13.2335V12.5002H17.6668V13.2335H10.7001ZM17.6668 15.4335V16.1668H10.7001V15.4335H17.6668ZM17.6668 16.9002V17.6335H10.7001V16.9002H17.6668ZM17.6668 18.3668V19.1002H10.7001V18.3668H17.6668ZM17.6668 19.8335V20.5668H10.7001V19.8335H17.6668ZM17.6668 21.3002V22.0335H10.7001V21.3002H17.6668ZM17.6668 22.7668V23.5002H10.7001V22.7668H17.6668ZM17.6668 24.2335V24.9668H10.7001V24.2335H17.6668ZM18.4001 24.2335H25.3668V24.9668H18.4001V24.2335ZM18.4001 23.5002V22.7668H25.3668V23.5002H18.4001ZM18.4001 22.0335V21.3002H25.3668V22.0335H18.4001ZM18.4001 20.5668V19.8335H25.3668V20.5668H18.4001ZM18.4001 19.1002V18.3668H25.3668V19.1002H18.4001ZM18.4001 17.6335V16.9002H25.3668V17.6335H18.4001ZM18.4001 16.1668V15.4335H25.3668V16.1668H18.4001ZM18.4001 14.7002V13.9668H25.3668V14.7002H18.4001ZM18.4001 13.2335V12.5002H25.3668V13.2335H18.4001ZM18.4001 11.7668V11.0335H25.3668V11.7668H18.4001ZM17.6668 11.7668H10.7001V11.0335H17.6668V11.7668ZM10.7001 25.7002H17.6668V26.4335H10.7001V25.7002ZM18.4001 26.4335V25.7002H25.3668V26.4335H18.4001ZM25.3668 10.3002H18.4001V9.56683H25.3668V10.3002ZM17.6668 9.56683V10.3002H10.7001V9.56683H17.6668Z" fill="#00B5DF"/>
</svg>
