<svg width="36" height="36" viewBox="0 0 36 36" fill="none" xmlns="http://www.w3.org/2000/svg">
<path d="M18 36C27.9411 36 36 27.9411 36 18C36 8.05887 27.9411 0 18 0C8.05887 0 0 8.05887 0 18C0 27.9411 8.05887 36 18 36Z" fill="#DCF1F7"/>
<path d="M24.0996 10.7213H21.8823V9.87525C21.8823 9.37928 21.503 9 21.007 9H14.8219C14.326 9 13.9467 9.37928 13.9467 9.87525V10.7213H11.7294C11.3209 10.7213 11 11.0423 11 11.4507V13.2012C11 13.6097 11.3209 13.9306 11.7294 13.9306H12.3129V24.5211H11.7294C11.3209 24.5211 11 24.8421 11 25.2505V27.001C11 27.4095 11.3209 27.7304 11.7294 27.7304H24.0704C24.4789 27.7304 24.7998 27.4095 24.7998 27.001V25.2505C24.7998 24.8421 24.4789 24.5211 24.0704 24.5211H23.4869V13.9014H24.0704C24.4789 13.9014 24.7998 13.5805 24.7998 13.172V11.4215C24.7998 11.0423 24.4789 10.7213 24.0996 10.7213ZM14.5302 9.87525C14.5302 9.7002 14.6469 9.5835 14.8219 9.5835H20.9779C21.1529 9.5835 21.2696 9.7002 21.2696 9.87525V10.7213H14.5302V9.87525ZM12.9256 13.9014H14.4718V24.492H12.9256V13.9014V13.9014ZM19.2565 24.492V13.9014H20.8028V24.492H19.2565V24.492ZM18.673 24.492H17.1268V13.9014H18.673V24.492ZM16.5724 24.492H15.0262V13.9014H16.5724V24.492ZM24.2163 25.1922V26.9427C24.2163 27.0302 24.158 27.0885 24.0704 27.0885H11.7294C11.6419 27.0885 11.5835 27.0302 11.5835 26.9427V25.1922C11.5835 25.1046 11.6419 25.0463 11.7294 25.0463H24.0704C24.158 25.0755 24.2163 25.1338 24.2163 25.1922ZM22.9034 24.492H21.3571V13.9014H22.9034V24.492ZM24.2163 13.172C24.2163 13.2596 24.158 13.3179 24.0704 13.3179H11.7294C11.6419 13.3179 11.5835 13.2596 11.5835 13.172V11.4215C11.5835 11.334 11.6419 11.2757 11.7294 11.2757H14.2384H21.5614H24.0704C24.158 11.2757 24.2163 11.334 24.2163 11.4215V13.172Z" fill="#00B5DF"/>
</svg>
