<svg width="35" height="29" viewBox="0 0 35 29" fill="none" xmlns="http://www.w3.org/2000/svg">
<path fill-rule="evenodd" clip-rule="evenodd" d="M10.3418 24.6582C9.90787 24.2243 9.90787 23.5208 10.3418 23.0869C10.7757 22.6529 11.4792 22.6529 11.9131 23.0869C16.6862 27.8599 24.4249 27.8599 29.198 23.0869C33.971 18.3138 33.971 10.5751 29.198 5.80203C24.4249 1.02895 16.6862 1.02895 11.9131 5.80203C11.4792 6.23594 10.7757 6.23594 10.3418 5.80203C9.90787 5.36811 9.90787 4.6646 10.3418 4.23068C15.9827 -1.41023 25.1284 -1.41023 30.7693 4.23068C36.4102 9.87159 36.4102 19.0173 30.7693 24.6582C25.1284 30.2991 15.9827 30.2991 10.3418 24.6582ZM26.5597 15.3987L19.9986 21.8773C18.9508 22.923 17.3796 21.3545 18.4274 20.3093L22.8069 15.9425C23.0218 15.7282 22.9507 15.5533 22.6467 15.5533L1.11103 15.5533C0.495235 15.5533 0 15.0569 0 14.4444C0 13.8277 0.497425 13.3355 1.11103 13.3355L22.6467 13.3355C22.9524 13.3355 23.0225 13.1613 22.8069 12.9463L18.4274 8.57951C17.3796 7.53383 18.9508 5.96586 19.9986 7.01154L26.552 13.4476C27.1025 13.9883 27.1047 14.8606 26.5597 15.3987Z" fill="#808FB4"/>
</svg>
