<svg width="36" height="36" viewBox="0 0 36 36" fill="none" xmlns="http://www.w3.org/2000/svg">
<path d="M18 36C27.9411 36 36 27.9411 36 18C36 8.05887 27.9411 0 18 0C8.05887 0 0 8.05887 0 18C0 27.9411 8.05887 36 18 36Z" fill="#DCF1F7"/>
<path fill-rule="evenodd" clip-rule="evenodd" d="M21.6959 28.5333H12.9039C11.5967 28.5333 10.5332 27.4698 10.5332 26.1627V17.3707C10.5332 16.0635 11.5967 15 12.9039 15H21.6959C23.003 15 24.0665 16.0635 24.0665 17.3707V26.1627C24.0665 27.4698 23.003 28.5333 21.6959 28.5333ZM12.9039 15.9333C12.1115 15.9333 11.4665 16.5783 11.4665 17.3707V26.1627C11.4665 26.9551 12.1115 27.6 12.9039 27.6H21.6959C22.4883 27.6 23.1332 26.9551 23.1332 26.1627V17.3707C23.1332 16.5783 22.4883 15.9333 21.6959 15.9333H12.9039Z" fill="#00B5DF"/>
<path fill-rule="evenodd" clip-rule="evenodd" d="M22.1999 15.9334H12.3999V12.2579C12.3999 11.4538 13.0537 10.8 13.8578 10.8H20.742C21.5461 10.8 22.1999 11.4538 22.1999 12.2579V15.9334ZM13.3332 15H21.2666V12.2579C21.2666 11.9686 21.0314 11.7334 20.742 11.7334H13.8578C13.5684 11.7334 13.3332 11.9686 13.3332 12.2579V15Z" fill="#00B5DF"/>
<path fill-rule="evenodd" clip-rule="evenodd" d="M12.8664 14.5334H6.33311C5.56124 14.5334 4.93311 13.9053 4.93311 13.1334C4.93311 12.3615 5.56124 11.7334 6.33311 11.7334H12.8664V12.6667H6.33311C6.07551 12.6667 5.86644 12.8758 5.86644 13.1334C5.86644 13.391 6.07551 13.6001 6.33311 13.6001H12.8664V14.5334Z" fill="#00B5DF"/>
<path fill-rule="evenodd" clip-rule="evenodd" d="M21.7334 13.6001H25.4667V14.5334H21.7334V13.6001Z" fill="#00B5DF"/>
<path fill-rule="evenodd" clip-rule="evenodd" d="M21.7334 11.7334H27.3334V12.6667H21.7334V11.7334Z" fill="#00B5DF"/>
<path fill-rule="evenodd" clip-rule="evenodd" d="M29.9205 20.6001H27.0795C25.9329 20.6001 25 19.6672 25 18.5206V13.8129C25 12.6663 25.9329 11.7334 27.0795 11.7334H29.9205C31.0671 11.7334 32 12.6663 32 13.8129V18.5206C32 19.6672 31.0671 20.6001 29.9205 20.6001ZM27.0795 12.6667C26.4476 12.6667 25.9333 13.181 25.9333 13.8129V18.5206C25.9333 19.1525 26.4476 19.6667 27.0795 19.6667H29.9205C30.5524 19.6667 31.0667 19.1525 31.0667 18.5206V13.8129C31.0667 13.181 30.5524 12.6667 29.9205 12.6667H27.0795Z" fill="#00B5DF"/>
<path fill-rule="evenodd" clip-rule="evenodd" d="M6.33333 22.4667C5.04673 22.4667 4 21.4199 4 20.1333C4 18.6134 5.76727 16.3603 5.96887 16.1083L6.3366 15.6487L6.70013 16.1116C6.90173 16.3683 8.66667 18.6582 8.66667 20.1333C8.66667 21.4199 7.61993 22.4667 6.33333 22.4667ZM6.33053 17.1817C5.7528 17.9927 4.93333 19.3213 4.93333 20.1333C4.93333 20.9052 5.56147 21.5333 6.33333 21.5333C7.1052 21.5333 7.73333 20.9052 7.73333 20.1333C7.73333 19.347 6.9092 18.0039 6.33053 17.1817Z" fill="#00B5DF"/>
<path fill-rule="evenodd" clip-rule="evenodd" d="M20.7998 11.7333H13.7998V11.2667C13.7998 9.46533 15.2656 8 17.0665 8H17.5331C19.334 8 20.7998 9.46533 20.7998 11.2667V11.7333ZM14.7803 10.8H19.8193C19.6028 9.73647 18.6601 8.93333 17.5331 8.93333H17.0665C15.9395 8.93333 14.9968 9.73647 14.7803 10.8Z" fill="#00B5DF"/>
</svg>
