<svg width="34" height="34" viewBox="0 0 34 34" fill="none" xmlns="http://www.w3.org/2000/svg">
<path d="M33.2961 14.0083L30.1988 13.0932C29.9172 12.1077 29.4948 11.1222 29.0021 10.207L30.5507 7.32091C30.6915 7.03934 30.6211 6.68737 30.4099 6.47619L27.2422 3.30849C27.0311 3.09731 26.6791 3.02692 26.3975 3.1677L23.5114 4.71636C22.5963 4.2236 21.6108 3.80124 20.6253 3.51967L19.7101 0.42236C19.7101 0.21118 19.4286 0 19.147 0H14.7122C14.4306 0 14.1491 0.21118 14.0083 0.492754L13.0932 3.59006C12.1077 3.87164 11.1222 4.294 10.207 4.78675L7.32091 3.2381C7.03934 3.09731 6.68737 3.1677 6.47619 3.37888L3.37888 6.54658C3.1677 6.75776 3.09731 7.10973 3.2381 7.3913L4.78675 10.2774C4.294 11.1925 3.87164 12.1781 3.59006 13.1636L0.492754 14.0787C0.21118 14.0787 0 14.3602 0 14.6418V19.0766C0 19.3582 0.21118 19.6398 0.492754 19.7805L3.59006 20.6957C3.87164 21.6812 4.294 22.6667 4.78675 23.5818L3.2381 26.4679C3.09731 26.7495 3.1677 27.1014 3.37888 27.3126L6.54658 30.4803C6.75776 30.6915 7.10973 30.7619 7.3913 30.6211L10.2774 29.0725C11.1925 29.5652 12.1781 29.9876 13.1636 30.2691L14.0787 33.3665C14.1491 33.648 14.4306 33.8592 14.7826 33.8592H19.2174C19.499 33.8592 19.7805 33.648 19.9213 33.3665L20.8364 30.2691C21.8219 29.9876 22.8075 29.5652 23.7226 29.0725L26.6087 30.6211C26.8903 30.7619 27.2422 30.6915 27.4534 30.4803L30.6211 27.3126C30.8323 27.1014 30.9027 26.7495 30.7619 26.4679L29.2133 23.5818C29.706 22.6667 30.1284 21.6812 30.4099 20.6957L33.5072 19.7805C33.7888 19.7101 34 19.4286 34 19.0766V14.6418C33.7888 14.3602 33.5776 14.0787 33.2961 14.0083ZM32.381 18.5838L29.4244 19.499C29.2133 19.5694 29.0021 19.7805 28.9317 19.9917C28.6501 21.118 28.1574 22.1739 27.5942 23.2298C27.4534 23.441 27.4534 23.7226 27.5942 23.9337L29.0725 26.6791L26.6791 29.0725L23.9337 27.5942C23.7226 27.4534 23.441 27.4534 23.2298 27.5942C22.2443 28.2277 21.118 28.6501 19.9917 28.9317C19.7805 29.0021 19.5694 29.1429 19.499 29.4244L18.5839 32.381H15.205L14.2899 29.4244C14.2195 29.2132 14.0083 29.0021 13.7971 28.9317C12.6708 28.6501 11.6149 28.1573 10.559 27.5942C10.3478 27.4534 10.0663 27.4534 9.85507 27.5942L7.10973 29.0725L4.71636 26.6791L6.19462 23.9337C6.3354 23.7226 6.3354 23.441 6.19462 23.2298C5.56108 22.2443 5.13872 21.118 4.85714 19.9917C4.78675 19.7805 4.64596 19.5694 4.36439 19.499L1.40787 18.5838V15.205L4.36439 14.2899C4.57557 14.2195 4.78675 14.0083 4.85714 13.7971C5.13872 12.6708 5.63147 11.6149 6.19462 10.559C6.3354 10.3478 6.3354 10.0663 6.19462 9.85507L4.71636 7.10973L7.10973 4.71636L9.85507 6.19462C10.0663 6.3354 10.3478 6.3354 10.559 6.19462C11.5445 5.56108 12.6708 5.13872 13.7971 4.85714C14.0083 4.78675 14.2195 4.64596 14.2899 4.36439L15.205 1.40787H18.5839L19.499 4.36439C19.5694 4.57557 19.7805 4.78675 19.9917 4.85714C21.118 5.13872 22.1739 5.63147 23.2298 6.19462C23.441 6.3354 23.7226 6.3354 23.9337 6.19462L26.6791 4.71636L29.0725 7.10973L27.5942 9.85507C27.4534 10.0663 27.4534 10.3478 27.5942 10.559C28.2277 11.5445 28.6501 12.6708 28.9317 13.7971C29.0021 14.0083 29.1429 14.2195 29.4244 14.2899L32.381 15.205V18.5838Z" fill="#008CC5"/>
<path d="M16.8943 6.89854C11.4036 6.89854 6.89844 11.4037 6.89844 16.8944C6.89844 22.3851 11.4036 26.8903 16.8943 26.8903C22.385 26.8903 26.8902 22.3851 26.8902 16.8944C26.8902 11.4037 22.385 6.89854 16.8943 6.89854ZM16.8943 25.4824C12.1779 25.4824 8.30631 21.6108 8.30631 16.8944C8.30631 12.178 12.1779 8.30641 16.8943 8.30641C21.6107 8.30641 25.4823 12.178 25.4823 16.8944C25.4823 21.6108 21.6107 25.4824 16.8943 25.4824Z" fill="#008CC5"/>
</svg>
