<svg width="31" height="28" viewBox="0 0 31 28" fill="none" xmlns="http://www.w3.org/2000/svg">
<path d="M6.70384 0C6.4006 0 6.10979 0.112911 5.89537 0.313894C5.68095 0.514877 5.56049 0.787469 5.56049 1.0717V2.69354H4.5734C3.36046 2.69354 2.19719 3.14519 1.33952 3.94912C0.481839 4.75305 0 5.84342 0 6.98035V23.7132C0 24.8501 0.481839 25.9405 1.33952 26.7444C2.19719 27.5484 3.36046 28 4.5734 28H26.4266C27.6395 28 28.8028 27.5484 29.6605 26.7444C30.5182 25.9405 31 24.8501 31 23.7132V6.98035C31 5.84342 30.5182 4.75305 29.6605 3.94912C28.8028 3.14519 27.6395 2.69354 26.4266 2.69354H25.4395V1.0717C25.4395 0.787469 25.3191 0.514877 25.1046 0.313894C24.8902 0.112911 24.5994 0 24.2962 0C23.9929 0 23.7021 0.112911 23.4877 0.313894C23.2733 0.514877 23.1528 0.787469 23.1528 1.0717V2.69354H16.6433V1.0717C16.6433 0.787469 16.5229 0.514877 16.3085 0.313894C16.0941 0.112911 15.8032 0 15.5 0C15.1968 0 14.906 0.112911 14.6915 0.313894C14.4771 0.514877 14.3567 0.787469 14.3567 1.0717V2.69354H7.84719V1.0717C7.84719 0.787469 7.72673 0.514877 7.51231 0.313894C7.29789 0.112911 7.00707 0 6.70384 0V0ZM28.7133 23.7132C28.7133 24.2817 28.4724 24.8268 28.0435 25.2288C27.6147 25.6308 27.0331 25.8566 26.4266 25.8566H4.5734C3.96693 25.8566 3.3853 25.6308 2.95646 25.2288C2.52762 24.8268 2.2867 24.2817 2.2867 23.7132V12.0174H28.7133V23.7132ZM14.3567 4.83695V6.45879C14.3567 6.74302 14.4771 7.01561 14.6915 7.2166C14.906 7.41758 15.1968 7.53049 15.5 7.53049C15.8032 7.53049 16.0941 7.41758 16.3085 7.2166C16.5229 7.01561 16.6433 6.74302 16.6433 6.45879V4.83695H23.1528V6.45879C23.1528 6.74302 23.2733 7.01561 23.4877 7.2166C23.7021 7.41758 23.9929 7.53049 24.2962 7.53049C24.5994 7.53049 24.8902 7.41758 25.1046 7.2166C25.3191 7.01561 25.4395 6.74302 25.4395 6.45879V4.83695H26.4266C27.0331 4.83695 27.6147 5.06277 28.0435 5.46474C28.4724 5.8667 28.7133 6.41189 28.7133 6.98035V9.87395H2.2867V6.98035C2.2867 6.41189 2.52762 5.8667 2.95646 5.46474C3.3853 5.06277 3.96693 4.83695 4.5734 4.83695H5.56049V6.45879C5.56049 6.74302 5.68095 7.01561 5.89537 7.2166C6.10979 7.41758 6.4006 7.53049 6.70384 7.53049C7.00707 7.53049 7.29789 7.41758 7.51231 7.2166C7.72673 7.01561 7.84719 6.74302 7.84719 6.45879V4.83695H14.3567Z" fill="#008CC5"/>
</svg>
