<svg width="36" height="36" viewBox="0 0 36 36" fill="none" xmlns="http://www.w3.org/2000/svg">
<path d="M18 36C27.9411 36 36 27.9411 36 18C36 8.05887 27.9411 0 18 0C8.05887 0 0 8.05887 0 18C0 27.9411 8.05887 36 18 36Z" fill="#DCF1F7"/>
<path d="M26.59 15.7453C26.5034 15.6609 26.4058 15.5885 26.2999 15.53V10C26.2993 9.53605 26.1148 9.09125 25.7867 8.76318C25.4587 8.43512 25.0139 8.25056 24.5499 8.25001H19.4697C19.1478 8.24918 18.8289 8.31216 18.5316 8.43532C18.2342 8.55847 17.9642 8.73936 17.7372 8.96751L16.8499 9.85476L15.9627 8.96751C15.7356 8.73937 15.4656 8.5585 15.1682 8.43535C14.8708 8.31219 14.552 8.2492 14.2302 8.25001H12.6499C12.1859 8.25056 11.7411 8.43512 11.4131 8.76318C11.085 9.09125 10.9005 9.53605 10.8999 10V21.2C10.9005 21.664 11.085 22.1088 11.4131 22.4368C11.7411 22.7649 12.1859 22.9494 12.6499 22.95H14.955L17.5923 25.5876C17.69 25.6849 17.7676 25.8006 17.8204 25.928C17.8732 26.0554 17.9002 26.192 17.8999 26.33V29.25H26.9999V16.7351C27.0003 16.5512 26.9644 16.369 26.894 16.1991C26.8237 16.0293 26.7204 15.875 26.59 15.7453ZM11.5999 21.2V10C11.5999 9.72153 11.7105 9.45446 11.9074 9.25755C12.1044 9.06063 12.3714 8.95001 12.6499 8.95001H14.2302C14.4601 8.94941 14.6878 8.99438 14.9002 9.08233C15.1127 9.17028 15.3056 9.29946 15.4678 9.46241L18.0025 11.9975L18.4974 11.5026L17.3448 10.35L18.2321 9.46276C18.3942 9.29974 18.5871 9.17048 18.7995 9.08247C19.0119 8.99446 19.2397 8.94944 19.4697 8.95001H24.5499C24.8284 8.95001 25.0954 9.06063 25.2924 9.25755C25.4893 9.45446 25.5999 9.72153 25.5999 10V15.3386C25.5649 15.3386 25.5337 15.3428 25.5005 15.3449C25.4833 15.3449 25.4655 15.3449 25.4497 15.348C25.364 15.3573 25.2793 15.3744 25.1967 15.3991C25.1795 15.4044 25.1617 15.4103 25.1463 15.4159C25.0614 15.4438 24.9793 15.4798 24.9013 15.5234V14.6344C24.9018 14.4504 24.8658 14.2682 24.7954 14.0982C24.725 13.9282 24.6215 13.7739 24.4911 13.6442C24.2704 13.4306 23.9868 13.2936 23.6823 13.2535C23.3777 13.2134 23.0684 13.2724 22.7999 13.4216V12.8851C22.8004 12.7011 22.7644 12.5189 22.694 12.3489C22.6236 12.1789 22.5201 12.0246 22.3897 11.8949C22.1229 11.6407 21.7684 11.4989 21.3999 11.4989C21.0314 11.4989 20.6769 11.6407 20.4101 11.8949C20.2797 12.0246 20.1762 12.1789 20.1058 12.3489C20.0354 12.5189 19.9994 12.7011 19.9999 12.8851V13.072C19.7315 12.9233 19.4224 12.8647 19.1182 12.9049C18.814 12.9451 18.5307 13.082 18.3101 13.2953C18.1797 13.4249 18.0763 13.5792 18.0059 13.7491C17.9355 13.919 17.8995 14.1012 17.8999 14.2851V21.2599C17.9 21.3291 17.8795 21.3968 17.841 21.4544C17.8026 21.512 17.748 21.5569 17.684 21.5834C17.62 21.61 17.5496 21.6169 17.4817 21.6034C17.4138 21.5899 17.3514 21.5566 17.3025 21.5077L15.6372 19.8427C15.3859 19.5914 15.0451 19.4503 14.6897 19.4503C14.3343 19.4503 13.9935 19.5914 13.7423 19.8427C13.491 20.094 13.3498 20.4348 13.3498 20.7902C13.3498 21.1455 13.491 21.4863 13.7423 21.7376L14.255 22.25H12.6499C12.3714 22.25 12.1044 22.1394 11.9074 21.9425C11.7105 21.7456 11.5999 21.4785 11.5999 21.2ZM26.2999 28.55H18.5999V26.33C18.6005 26.1001 18.5554 25.8724 18.4674 25.66C18.3794 25.4476 18.2502 25.2548 18.0872 25.0927L15.9448 22.95L15.8027 22.8079L15.3477 22.3529L14.2375 21.2431C14.1479 21.1536 14.0869 21.0395 14.0621 20.9153C14.0374 20.7912 14.05 20.6624 14.0984 20.5454C14.1468 20.4284 14.2288 20.3284 14.3341 20.258C14.4393 20.1876 14.5631 20.15 14.6897 20.15C14.8594 20.1506 15.022 20.218 15.1423 20.3376L16.8076 22.0029C16.9544 22.1497 17.1416 22.2497 17.3453 22.2902C17.549 22.3307 17.7601 22.3098 17.952 22.2303C18.1439 22.1507 18.3078 22.0161 18.4232 21.8433C18.5385 21.6706 18.6 21.4676 18.5999 21.2599V14.2851C18.5997 14.193 18.6177 14.1019 18.6529 14.0169C18.6881 13.9319 18.7398 13.8547 18.805 13.7898C18.9384 13.6626 19.1156 13.5917 19.2999 13.5917C19.4842 13.5917 19.6614 13.6626 19.7948 13.7898C19.86 13.8547 19.9117 13.9319 19.9469 14.0169C19.9821 14.1019 20.0001 14.193 19.9999 14.2851V20.15H20.6999V12.8851C20.6997 12.793 20.7177 12.7019 20.7529 12.6169C20.7881 12.5319 20.8398 12.4547 20.905 12.3898C21.0384 12.2626 21.2156 12.1917 21.3999 12.1917C21.5842 12.1917 21.7614 12.2626 21.8948 12.3898C21.96 12.4547 22.0117 12.5319 22.0469 12.6169C22.0821 12.7019 22.1001 12.793 22.0999 12.8851V20.15H22.7999V14.6351C22.7997 14.543 22.8177 14.4519 22.8529 14.3669C22.8881 14.2819 22.9398 14.2047 23.005 14.1398C23.1384 14.0126 23.3156 13.9417 23.4999 13.9417C23.6842 13.9417 23.8614 14.0126 23.9948 14.1398C24.06 14.2047 24.1117 14.2819 24.1469 14.3669C24.1821 14.4519 24.2001 14.543 24.1999 14.6351V20.15H24.8999V16.7351C24.8997 16.6231 24.9264 16.5127 24.9779 16.4133C25.0293 16.3139 25.104 16.2284 25.1956 16.1639C25.2871 16.0995 25.3929 16.0581 25.5038 16.0432C25.6148 16.0283 25.7277 16.0404 25.833 16.0785V16.0785C25.97 16.1249 26.0888 16.2134 26.1726 16.3313C26.2564 16.4491 26.301 16.5904 26.2999 16.7351V28.55Z" fill="#00B5DF"/>
<path d="M6 18.0499V21.5499H6.7V18.0499C6.70102 17.1219 7.0701 16.2323 7.72625 15.5761C8.38241 14.9199 9.27205 14.5509 10.2 14.5499V13.8499C9.08646 13.8511 8.01887 14.2939 7.23148 15.0813C6.44409 15.8687 6.0012 16.9363 6 18.0499V18.0499Z" fill="#00B5DF"/>
<path d="M7.3999 18.05V20.15H8.0999V18.05C8.10055 17.4932 8.32201 16.9595 8.71569 16.5658C9.10938 16.1721 9.64315 15.9506 10.1999 15.95V15.25C9.45755 15.2508 8.74585 15.5461 8.22092 16.071C7.696 16.5959 7.40074 17.3076 7.3999 18.05Z" fill="#00B5DF"/>
<path d="M8.80029 18.0501V21.5501H9.50029V18.0501C9.50029 17.8645 9.57404 17.6864 9.70532 17.5552C9.83659 17.4239 10.0146 17.3501 10.2003 17.3501V16.6501C9.82899 16.6501 9.47289 16.7976 9.21034 17.0602C8.94779 17.3227 8.80029 17.6788 8.80029 18.0501V18.0501Z" fill="#00B5DF"/>
<path d="M8.0999 20.8499H7.3999V22.9499H8.0999V20.8499Z" fill="#00B5DF"/>
<path d="M19.3423 10.4527C19.4082 10.3873 19.497 10.3505 19.5898 10.3501H21.05V9.65015H19.5898C19.4519 9.6498 19.3152 9.6768 19.1878 9.72961C19.0604 9.78242 18.9447 9.85998 18.8474 9.9578L18.3525 10.4527L18.8474 10.9476L19.3423 10.4527Z" fill="#00B5DF"/>
</svg>
