<svg width="36" height="36" viewBox="0 0 36 36" fill="none" xmlns="http://www.w3.org/2000/svg">
<path d="M18 36C27.9411 36 36 27.9411 36 18C36 8.05887 27.9411 0 18 0C8.05887 0 0 8.05887 0 18C0 27.9411 8.05887 36 18 36Z" fill="#DCF1F7"/>
<path d="M17.9999 9.13867C13.1137 9.13867 9.13867 13.1137 9.13867 17.9999C9.13867 22.8862 13.1137 26.8612 17.9999 26.8612C22.8862 26.8612 26.8612 22.8862 26.8612 17.9999C26.8612 13.1137 22.8862 9.13867 17.9999 9.13867ZM17.9999 9.88867C21.8662 9.88867 25.1062 12.6074 25.9162 16.2299C20.7224 14.7074 15.2774 14.7074 10.0837 16.2299C10.8937 12.6037 14.1337 9.88867 17.9999 9.88867ZM10.3012 20.5574H10.9799C13.6424 20.5574 15.8062 22.7212 15.8062 25.3837V25.8074C13.2187 25.0837 11.1487 23.0962 10.3012 20.5574ZM16.5599 25.9837V25.3874C16.5599 22.3124 14.0587 19.8112 10.9837 19.8112H10.0949C9.96367 19.2299 9.88867 18.6262 9.88867 18.0037C9.88867 17.6849 9.91117 17.3662 9.94492 17.0587C15.2212 15.4349 20.7787 15.4349 26.0549 17.0587C26.0924 17.3699 26.1112 17.6849 26.1112 18.0074C26.1112 18.6299 26.0399 19.2337 25.9049 19.8149H25.0199C21.9449 19.8149 19.4437 22.3162 19.4437 25.3912V25.9874C18.9749 26.0737 18.4912 26.1187 17.9999 26.1187C17.5087 26.1112 17.0287 26.0662 16.5599 25.9837ZM20.1937 25.8074V25.3837C20.1937 22.7212 22.3574 20.5574 25.0199 20.5574H25.6949C24.8512 23.0962 22.7849 25.0799 20.1937 25.8074Z" fill="#00B5DF"/>
<path d="M18 6C11.3813 6 6 11.385 6 18C6 24.615 11.3813 30 18 30C24.6187 30 30 24.615 30 18C30 11.385 24.6187 6 18 6ZM18 29.25C11.7975 29.25 6.75 24.2025 6.75 18C6.75 11.7975 11.7975 6.75 18 6.75C24.2025 6.75 29.25 11.7975 29.25 18C29.25 24.2025 24.2025 29.25 18 29.25Z" fill="#00B5DF"/>
<path d="M20.2423 18.8326C20.2423 17.5951 19.2373 16.5901 17.9998 16.5901C16.7623 16.5901 15.7573 17.5951 15.7573 18.8326C15.7573 20.0663 16.7623 21.0751 17.9998 21.0751C19.2373 21.0751 20.2423 20.0663 20.2423 18.8326ZM16.5073 18.8326C16.5073 18.0113 17.1748 17.3401 17.9998 17.3401C18.8248 17.3401 19.4923 18.0076 19.4923 18.8326C19.4923 19.6576 18.8248 20.3251 17.9998 20.3251C17.1748 20.3251 16.5073 19.6538 16.5073 18.8326Z" fill="#00B5DF"/>
</svg>
