<svg width="36" height="37" viewBox="0 0 36 37" fill="none" xmlns="http://www.w3.org/2000/svg">
<path d="M18 36.25C27.9411 36.25 36 28.1911 36 18.25C36 8.30887 27.9411 0.25 18 0.25C8.05887 0.25 0 8.30887 0 18.25C0 28.1911 8.05887 36.25 18 36.25Z" fill="#DCF1F7"/>
<path d="M17.9953 20.7959C19.2676 20.805 20.3128 19.7817 20.3208 18.5204C20.3287 17.2613 19.3061 16.2143 18.0575 16.2042C16.7705 16.194 15.7298 17.2128 15.7207 18.491C15.714 19.7433 16.7422 20.7869 17.9953 20.7959ZM18.0473 16.9759C18.8993 16.9905 19.5592 17.6731 19.5479 18.5271C19.5366 19.371 18.845 20.0378 17.9931 20.0254C17.1456 20.0141 16.4846 19.3304 16.4925 18.473C16.5015 17.6291 17.1953 16.9612 18.0473 16.9759Z" fill="#00B5DF"/>
<path d="M18.0412 15.0567C18.4604 15.0431 18.796 14.6956 18.7892 14.2827C18.7824 13.8687 18.4344 13.5234 18.0231 13.5234C17.6005 13.5234 17.248 13.8788 17.2525 14.2996C17.2559 14.7216 17.6197 15.0702 18.0412 15.0567Z" fill="#00B5DF"/>
<path d="M13.8021 19.267C14.2258 19.2704 14.5773 18.9173 14.5727 18.4931C14.5682 18.0779 14.2224 17.7327 13.81 17.7327C13.3874 17.7315 13.0337 18.0858 13.0371 18.5066C13.0405 18.9173 13.3885 19.2636 13.8021 19.267Z" fill="#00B5DF"/>
<path d="M21.4697 18.5202C21.4832 18.9376 21.8335 19.275 22.246 19.2671C22.6686 19.2592 23.02 18.8959 23.0053 18.4796C22.9917 18.0656 22.6392 17.7271 22.2268 17.7327C21.803 17.7395 21.455 18.1005 21.4697 18.5202Z" fill="#00B5DF"/>
<path d="M18.0268 21.9434C17.6132 21.9389 17.2641 22.2762 17.2528 22.6925C17.2403 23.11 17.5929 23.4732 18.0143 23.4778C18.4336 23.4823 18.7918 23.1246 18.7895 22.7049C18.7861 22.2898 18.4437 21.9479 18.0268 21.9434Z" fill="#00B5DF"/>
<path d="M15.0376 16.2888C15.4648 16.2899 15.8105 15.9424 15.806 15.5159C15.8015 15.0974 15.4625 14.7623 15.0422 14.7634C14.606 14.7646 14.2772 15.0951 14.2783 15.5329C14.2806 15.9514 14.6184 16.2876 15.0376 16.2888Z" fill="#00B5DF"/>
<path d="M21.0049 20.7112C20.5789 20.7089 20.232 21.0564 20.2354 21.4818C20.2388 21.9082 20.5857 22.2433 21.0184 22.2354C21.441 22.2286 21.7653 21.8935 21.7631 21.4682C21.7597 21.0485 21.4241 20.7123 21.0049 20.7112Z" fill="#00B5DF"/>
<path d="M20.9902 16.2888C21.4184 16.2944 21.763 15.9526 21.763 15.5239C21.763 15.0985 21.4365 14.768 21.0116 14.7635C20.58 14.759 20.2354 15.0963 20.2354 15.5239C20.2354 15.9413 20.5732 16.2832 20.9902 16.2888Z" fill="#00B5DF"/>
<path d="M15.0421 20.7112C14.6229 20.7101 14.2839 21.044 14.2794 21.4637C14.2737 21.8901 14.5958 22.2275 15.0172 22.2365C15.45 22.2467 15.8003 21.915 15.8071 21.4885C15.8127 21.0621 15.4669 20.7123 15.0421 20.7112Z" fill="#00B5DF"/>
<path d="M18.021 32C25.4764 32 31.5419 25.9438 31.5419 18.5C31.5419 11.0562 25.4764 5 18.021 5C10.5656 5 4.5 11.0562 4.5 18.5C4.5 25.9438 10.5656 32 18.021 32ZM10.9045 8.10818L14.0051 9.29843C14.0582 9.31761 14.1136 9.32776 14.1667 9.32776C14.3486 9.32776 14.5204 9.21833 14.5882 9.03894C14.6774 8.80654 14.5622 8.54479 14.3294 8.45567L11.8707 7.51137C13.0571 6.84686 14.3611 6.37189 15.7441 6.11917L18.091 8.46244C18.1792 8.55043 18.2955 8.59443 18.4108 8.59443C18.5261 8.59443 18.6424 8.55043 18.7306 8.46244C18.9068 8.28644 18.9068 8.001 18.7306 7.825L16.8639 5.96122C17.2458 5.92625 17.6311 5.90256 18.021 5.90256C18.8164 5.90256 19.5927 5.98492 20.3475 6.12594L21.6967 9.15853C21.7701 9.32663 21.9362 9.42592 22.1091 9.42592C22.1713 9.42592 22.2323 9.41351 22.2922 9.38756C22.5204 9.28602 22.6232 9.01976 22.5215 8.79187L21.4526 6.38768C22.7984 6.76901 24.0549 7.36132 25.1792 8.13751V11.4522C25.1792 11.7015 25.3826 11.9034 25.6312 11.9034C25.8798 11.9034 26.0831 11.7015 26.0831 11.4522V8.82233C26.9781 9.56694 27.7668 10.4334 28.4278 11.3946L27.2346 14.4904C27.1442 14.7228 27.2606 14.9845 27.4933 15.0737C27.5464 15.094 27.6018 15.103 27.656 15.103C27.8368 15.103 28.0097 14.9936 28.0775 14.8142L29.0233 12.3581C29.6899 13.5438 30.1656 14.8469 30.4188 16.2289L28.0719 18.5722C27.8956 18.7482 27.8956 19.0336 28.0719 19.2096C28.16 19.2976 28.2764 19.3416 28.3916 19.3416C28.5069 19.3416 28.6233 19.2976 28.7114 19.2096L30.5758 17.3481C30.6108 17.7283 30.6346 18.1108 30.6346 18.5C30.6346 19.2954 30.5521 20.0704 30.4097 20.8252L27.3735 22.1712C27.1453 22.2727 27.0425 22.5389 27.1442 22.7668C27.2176 22.9349 27.3837 23.0354 27.5566 23.0354C27.6187 23.0354 27.6798 23.0229 27.7397 22.997L30.1464 21.9308C29.7645 23.2745 29.1713 24.528 28.3939 25.6494H25.0752C24.8255 25.6494 24.6233 25.8513 24.6233 26.1007C24.6233 26.35 24.8266 26.5519 25.0752 26.5519H27.7103C26.9645 27.4466 26.0967 28.2341 25.1329 28.8941L22.0323 27.7038C21.804 27.617 21.5374 27.7298 21.4481 27.9633C21.3577 28.1957 21.4741 28.4575 21.7069 28.5466L24.1645 29.4909C22.978 30.1554 21.673 30.6304 20.2899 30.8831L17.943 28.5398C17.7667 28.3638 17.4797 28.3638 17.3034 28.5398C17.1272 28.7158 17.1272 29.0013 17.3034 29.1773L19.169 31.0399C18.7882 31.0749 18.4051 31.0986 18.0153 31.0986C17.2187 31.0986 16.4413 31.0162 15.6854 30.8741L14.3373 27.8437C14.2368 27.6147 13.9667 27.5132 13.7418 27.6136C13.5136 27.7151 13.4108 27.9814 13.5125 28.2093L14.5814 30.6123C13.2356 30.231 11.9803 29.6387 10.8571 28.8625V25.549C10.8571 25.2996 10.6537 25.0977 10.4051 25.0977C10.1565 25.0977 9.95313 25.2996 9.95313 25.549V28.1799C9.05821 27.4353 8.26838 26.5677 7.60736 25.6065L8.79945 22.513C8.88985 22.2806 8.77347 22.0188 8.5407 21.9297C8.31245 21.8417 8.04578 21.9557 7.95651 22.1892L7.01527 24.6408C6.34973 23.4562 5.87515 22.1542 5.62091 20.7744L7.96781 18.4312C8.14408 18.2552 8.14408 17.9697 7.96781 17.7937C7.79154 17.6177 7.50453 17.6177 7.32826 17.7937L5.46385 19.6553C5.42769 19.2739 5.40396 18.8892 5.40396 18.5C5.40396 17.7046 5.48645 16.9284 5.62882 16.1737L8.66386 14.8288C8.89211 14.7273 8.99494 14.4611 8.89324 14.2332C8.79267 14.0053 8.52262 13.9026 8.29776 14.0041L5.8921 15.0692C6.27402 13.7266 6.86611 12.4732 7.64352 11.3529H10.9622C11.2119 11.3529 11.4142 11.1509 11.4142 10.9016C11.4142 10.6523 11.2108 10.4503 10.9622 10.4503H8.32601C9.0729 9.55679 9.9407 8.76818 10.9045 8.10818Z" fill="#00B5DF"/>
<path d="M18.0212 26.8148C22.6122 26.8148 26.349 23.085 26.349 18.5C26.349 13.9161 22.6122 10.1863 18.0212 10.1863C13.4291 10.1863 9.69238 13.9161 9.69238 18.5011C9.69238 23.0861 13.4291 26.8148 18.0212 26.8148ZM18.0212 11.0888C22.115 11.0888 25.4439 14.4136 25.4439 18.5C25.4439 22.5874 22.115 25.9122 18.0212 25.9122C13.9274 25.9122 10.5975 22.5874 10.5975 18.5011C10.5975 14.4136 13.9274 11.0888 18.0212 11.0888Z" fill="#00B5DF"/>
</svg>
