<svg width="36" height="36" viewBox="0 0 36 36" fill="none" xmlns="http://www.w3.org/2000/svg">
<path d="M18 36C27.9411 36 36 27.9411 36 18C36 8.05887 27.9411 0 18 0C8.05887 0 0 8.05887 0 18C0 27.9411 8.05887 36 18 36Z" fill="#DCF1F7"/>
<path d="M31.1795 19.0302C27.6363 15.743 23.0253 13.9329 18.1953 13.9329C13.3653 13.9329 8.75406 15.743 5.21111 19.0302C4.94641 19.2756 4.9282 19.6884 5.17021 19.956L14.0501 29.7826C14.2874 30.0449 14.689 30.0739 14.9611 29.848C15.8674 29.0959 17.0159 28.6818 18.1953 28.6818C19.3747 28.6818 20.5232 29.0959 21.4295 29.848C21.5525 29.9501 21.7018 30 21.8507 30C22.0312 30 22.2104 29.9264 22.3402 29.7826L31.2201 19.956C31.4624 19.6881 31.4442 19.2756 31.1795 19.0302ZM21.7639 28.4522C20.7146 27.7457 19.4692 27.3623 18.1953 27.3623C16.9214 27.3623 15.6758 27.7457 14.6265 28.4522L11.6578 25.1671C11.7008 25.1222 11.7399 25.0745 11.7797 25.0272C12.2933 25.6376 13.0618 26.0272 13.92 26.0272C14.7769 26.0272 15.5441 25.639 16.0577 25.0301C16.5712 25.639 17.3384 26.0272 18.1953 26.0272C19.0522 26.0272 19.8194 25.639 20.333 25.0301C20.8465 25.639 21.6137 26.0272 22.4706 26.0272C23.3288 26.0272 24.0973 25.6379 24.6106 25.0275C24.6505 25.0747 24.6895 25.1225 24.7325 25.1674L21.7639 28.4522ZM25.6216 24.1835C25.3986 23.9199 25.268 23.5837 25.268 23.2295C25.268 22.865 24.9727 22.5697 24.6082 22.5697C24.2438 22.5697 23.9485 22.865 23.9485 23.2295C23.9485 24.0444 23.2855 24.7076 22.4706 24.7076C21.6556 24.7076 20.9927 24.0444 20.9927 23.2295C20.9927 22.865 20.6974 22.5697 20.333 22.5697C19.9685 22.5697 19.6732 22.865 19.6732 23.2295C19.6732 24.0444 19.0103 24.7076 18.1953 24.7076C17.3804 24.7076 16.7174 24.0444 16.7174 23.2295C16.7174 22.865 16.4221 22.5697 16.0577 22.5697C15.6932 22.5697 15.3979 22.865 15.3979 23.2295C15.3979 24.0444 14.735 24.7076 13.92 24.7076C13.1053 24.7076 12.4421 24.0444 12.4421 23.2295C12.4421 22.865 12.1468 22.5697 11.7824 22.5697C11.4179 22.5697 11.1226 22.865 11.1226 23.2295C11.1226 23.5834 10.992 23.9199 10.769 24.1835L6.59372 19.5633C9.65582 16.9219 13.4972 15.4155 17.5355 15.2669V16.2222C17.5355 16.5867 17.8309 16.882 18.1953 16.882C18.5598 16.882 18.8551 16.5867 18.8551 16.2222V15.2669C22.8934 15.4155 26.7348 16.9219 29.7969 19.563L25.6216 24.1835Z" fill="#00B5DF"/>
<path d="M8.29893 12.2676C8.66338 12.2676 8.95869 11.9723 8.95869 11.6078C8.95869 11.4553 8.96687 11.3017 8.98297 11.1507C9.02177 10.7884 8.75944 10.4633 8.3971 10.4245C8.0337 10.3857 7.70962 10.648 7.67083 11.0103C7.64972 11.2077 7.63916 11.4088 7.63916 11.6078C7.63916 11.9723 7.93447 12.2676 8.29893 12.2676Z" fill="#00B5DF"/>
<path d="M12.8057 7.34245C13.1252 7.30893 13.4554 7.31263 13.7753 7.35222C13.8027 7.35565 13.8301 7.35749 13.8571 7.35749C14.1854 7.35749 14.4696 7.11285 14.511 6.77875C14.5559 6.41719 14.2991 6.08758 13.9373 6.04298C13.5193 5.99125 13.0878 5.98703 12.6695 6.03031C12.3069 6.06805 12.0435 6.39239 12.0812 6.75473C12.119 7.11707 12.4425 7.37861 12.8057 7.34245Z" fill="#00B5DF"/>
<path d="M17.5191 11.2339C17.5299 11.3569 17.5355 11.4831 17.5357 11.6079V12.2972C17.5357 12.6617 17.831 12.957 18.1955 12.957C18.5599 12.957 18.8553 12.6617 18.8553 12.2972V11.6084C18.8553 11.4831 18.8608 11.3569 18.8716 11.2339C18.9033 10.8711 18.6346 10.5509 18.2718 10.5193C18.2464 10.5172 18.2221 10.5195 18.1973 10.5203C18.1715 10.5195 18.1459 10.5169 18.1195 10.5193C17.7563 10.5509 17.4877 10.8711 17.5191 11.2339Z" fill="#00B5DF"/>
<path d="M16.6476 9.0034C16.7774 9.17256 16.9729 9.26097 17.1709 9.26097C17.3113 9.26097 17.4527 9.21637 17.5725 9.124C17.8615 8.90179 17.9154 8.48772 17.6934 8.19901C17.4358 7.86411 17.1403 7.55745 16.8143 7.288C16.5338 7.0555 16.1176 7.09509 15.8854 7.37562C15.6532 7.65642 15.6922 8.07233 15.973 8.30457C16.2229 8.51147 16.4499 8.74661 16.6476 9.0034Z" fill="#00B5DF"/>
<path d="M8.97279 9.03799C9.09445 9.13563 9.24039 9.18287 9.38501 9.18287C9.57819 9.18287 9.76979 9.09842 9.90016 8.93559C10.1034 8.68224 10.3348 8.45159 10.5884 8.25023C10.8737 8.02353 10.9215 7.60841 10.6948 7.32312C10.4681 7.03784 10.0532 6.99034 9.76768 7.21677C9.43674 7.47962 9.13483 7.78021 8.87039 8.11036C8.64264 8.39511 8.68856 8.81024 8.97279 9.03799Z" fill="#00B5DF"/>
<path d="M18.1954 18.3657C17.831 18.3657 17.5356 18.661 17.5356 19.0255V20.1468V20.1471C17.5356 20.5115 17.831 20.8069 18.1954 20.8069C18.5599 20.8069 18.8552 20.5115 18.8552 20.1471V20.1468V19.0255C18.8552 18.661 18.5599 18.3657 18.1954 18.3657Z" fill="#00B5DF"/>
<path d="M27.4076 11.1508C27.4237 11.3017 27.4319 11.4556 27.4319 11.6079C27.4319 11.9723 27.7272 12.2676 28.0917 12.2676C28.4561 12.2676 28.7514 11.9723 28.7514 11.6079C28.7514 11.4089 28.7406 11.2075 28.7195 11.0104C28.681 10.648 28.3571 10.3854 27.9932 10.4245C27.6311 10.4633 27.3688 10.7884 27.4076 11.1508Z" fill="#00B5DF"/>
<path d="M25.802 8.24993C26.0564 8.45208 26.2879 8.68274 26.4903 8.93556C26.6207 9.09813 26.8123 9.18284 27.0057 9.18284C27.1503 9.18284 27.296 9.1356 27.4177 9.03796C27.7022 8.81021 27.7481 8.39508 27.5203 8.11059C27.2564 7.78097 26.9542 7.48038 26.6233 7.217C26.338 6.99031 25.9232 7.03781 25.6962 7.32283C25.4692 7.60811 25.5167 8.02297 25.802 8.24993Z" fill="#00B5DF"/>
<path d="M18.8172 9.1244C18.937 9.21676 19.0787 9.26136 19.2191 9.26136C19.4168 9.26136 19.6123 9.17296 19.7422 9.00406C19.9404 8.74675 20.1673 8.51134 20.4175 8.30444C20.698 8.0722 20.7371 7.65602 20.5049 7.37549C20.2718 7.09496 19.8562 7.05616 19.5756 7.28814C19.2505 7.55758 18.9544 7.86398 18.6968 8.19888C18.4749 8.48759 18.5287 8.90192 18.8172 9.1244Z" fill="#00B5DF"/>
<path d="M22.5335 7.35727C22.5607 7.35727 22.5879 7.35569 22.6156 7.35199C22.7895 7.33035 22.9674 7.31953 23.1442 7.31953C23.2959 7.32534 23.4392 7.32692 23.5852 7.34223C23.9499 7.37918 24.2721 7.11659 24.3093 6.75398C24.3471 6.39137 24.084 6.06703 23.7211 6.02956C23.53 6.00976 23.3405 6.00686 23.1437 6C22.9133 6 22.681 6.01425 22.4533 6.04249C22.0917 6.08709 21.8349 6.41671 21.8795 6.77826C21.921 7.11237 22.2052 7.35727 22.5335 7.35727Z" fill="#00B5DF"/>
<path d="M18.1954 22.2961C17.831 22.2961 17.5356 22.5915 17.5356 22.9559V23.4837C17.5356 23.8482 17.831 24.1435 18.1954 24.1435C18.5599 24.1435 18.8552 23.8482 18.8552 23.4837V22.9559C18.8552 22.5915 18.5599 22.2961 18.1954 22.2961Z" fill="#00B5DF"/>
</svg>
