<svg width="144" height="144" viewBox="0 0 144 144" fill="none" xmlns="http://www.w3.org/2000/svg">
<rect width="144" height="144" rx="20" fill="#1026CB"/>
<path fill-rule="evenodd" clip-rule="evenodd" d="M120.2 67V67C118.696 64.1592 116.294 61.8154 115.147 58.8129L107 37.5C104.9 32.6 98.9 30 96.3 30H47.7C45.1 30 39 32.6 37 37.5L28.8534 58.8129C27.7057 61.8154 25.304 64.1592 23.8 67V67C22.9 68.7 22 70.2 22 81.7C22 92.3147 24.0659 96.4623 26.5803 97.9734C26.8508 98.136 27.1617 98.2115 27.4766 98.234V98.234C28.7857 98.3275 29.8 99.4169 29.8 100.729V108.9C29.8 112.3 31.8 114.2 35.1 114.2H38C41.3 114.2 43 112.3 43 108.9V108.9C43 103.101 47.701 98.4 53.5 98.4H90.4C96.199 98.4 100.9 103.101 100.9 108.9V108.9C100.9 112.3 102.7 114.2 105.9 114.2H108.8C112.1 114.2 114.1 112.3 114.1 108.9V100.713C114.1 99.4099 115.107 98.328 116.408 98.2352V98.2352C116.733 98.212 117.053 98.1312 117.331 97.9604C119.922 96.3657 121.9 92.2239 121.9 81.7C122 70.2 121 68.7 120.2 67ZM41.3 87.1C37.8 87.1 34.9 84.2 34.9 80.7C34.9 77.2 37.8 74.3 41.3 74.3C44.8 74.3 47.7 77.2 47.7 80.7C47.7 84.2 44.9 87.1 41.3 87.1ZM102.9 87.1C99.4 87.1 96.5 84.2 96.5 80.7C96.5 77.2 99.4 74.3 102.9 74.3C106.4 74.3 109.3 77.2 109.3 80.7C109.3 84.2 106.4 87.1 102.9 87.1ZM103.469 58.6533C103.087 59.0543 102.422 58.9 101.868 58.9H42.1319C41.5775 58.9 40.886 59.0704 40.5424 58.6354C40.4145 58.4734 40.362 58.2141 40.5 57.8C40.8 56.8 44.9 46.4 45.8 43.6C46.2 42.6 48.2 40.4 50.9 40.5H93.2C95.9 40.3 97.9 42.6 98.3 43.6C99.2 46.4 103.3 56.8 103.6 57.8C103.707 58.2297 103.623 58.4927 103.469 58.6533Z" fill="white"/>
</svg>
