<svg width="36" height="36" viewBox="0 0 36 36" fill="none" xmlns="http://www.w3.org/2000/svg">
<path d="M18 36C27.9411 36 36 27.9411 36 18C36 8.05887 27.9411 0 18 0C8.05887 0 0 8.05887 0 18C0 27.9411 8.05887 36 18 36Z" fill="#DCF1F7"/>
<path d="M30.0124 11.8527H26.8331V10.385C26.8331 10.1715 26.6616 10 26.4481 10H22.0565C21.8431 10 21.6715 10.1715 21.6715 10.385V11.8527H14.9203V10.385C14.9203 10.1715 14.7488 10 14.5353 10H10.1437C9.93027 10 9.75873 10.1715 9.75873 10.385V11.8527H6.38502C6.17154 11.8527 6 12.028 6 12.2415V25.6182C6 25.8316 6.17154 26.0032 6.38502 26.0032H30.0086C30.222 26.0032 30.3936 25.8316 30.3936 25.6182V12.2415C30.3974 12.028 30.2259 11.8527 30.0124 11.8527ZM22.4416 10.7739H26.0592V11.8565H22.4416V10.7739ZM10.5288 10.7739H14.1464V11.8565H10.5288V10.7739ZM29.6236 25.2293H6.77386V12.6265H29.6274V25.2293H29.6236Z" fill="#00B5DF"/>
<path d="M10.1438 19.313H14.5353C14.7488 19.313 14.9204 19.1415 14.9204 18.928C14.9204 18.7145 14.7488 18.543 14.5353 18.543H10.1438C9.93033 18.543 9.75879 18.7145 9.75879 18.928C9.75879 19.1415 9.93033 19.313 10.1438 19.313Z" fill="#00B5DF"/>
<path d="M22.0564 19.313H23.8672V21.1237C23.8672 21.3372 24.0387 21.5087 24.2522 21.5087C24.4657 21.5087 24.6372 21.3372 24.6372 21.1237V19.313H26.4479C26.6614 19.313 26.833 19.1414 26.833 18.928C26.833 18.7145 26.6614 18.5429 26.4479 18.5429H24.6372V16.7322C24.6372 16.5187 24.4657 16.3472 24.2522 16.3472C24.0387 16.3472 23.8672 16.5187 23.8672 16.7322V18.5429H22.0564C21.8429 18.5429 21.6714 18.7145 21.6714 18.928C21.6714 19.1414 21.8429 19.313 22.0564 19.313Z" fill="#00B5DF"/>
</svg>
