<svg width="36" height="36" viewBox="0 0 36 36" fill="none" xmlns="http://www.w3.org/2000/svg">
<path d="M18 36C27.9411 36 36 27.9411 36 18C36 8.05887 27.9411 0 18 0C8.05887 0 0 8.05887 0 18C0 27.9411 8.05887 36 18 36Z" fill="#DCF1F7"/>
<path fill-rule="evenodd" clip-rule="evenodd" d="M8.77709 27.2787C4.19079 22.2981 4.19079 14.5862 8.77709 9.60565L11.5884 12.4172C10.11 14.0797 9.30188 16.1986 9.30188 18.4422C9.30188 20.6857 10.11 22.8047 11.5884 24.4674L8.77709 27.2787ZM12.7307 24.0941C11.221 22.5842 10.3895 20.5772 10.3895 18.4422C10.3895 16.3071 11.221 14.3002 12.7307 12.7905L13.1154 12.406L8.76921 8.05957L8.38473 8.44405C2.87176 13.957 2.87176 22.9273 8.38473 28.44L8.76921 28.8248L13.1154 24.4786L12.7307 24.0941Z" fill="#00B5DF"/>
<path fill-rule="evenodd" clip-rule="evenodd" d="M18.5581 13.0039C21.5567 13.0039 23.9963 15.4435 23.9963 18.4421C23.9963 21.4407 21.5567 23.8803 18.5581 23.8803C15.5594 23.8803 13.1199 21.4407 13.1199 18.4421C13.1199 15.4435 15.5594 13.0039 18.5581 13.0039ZM18.5581 24.9679C22.1622 24.9679 25.0839 22.0463 25.0839 18.4421C25.0839 14.8379 22.1622 11.9163 18.5581 11.9163C14.9539 11.9163 12.0322 14.8379 12.0322 18.4421C12.0322 22.0463 14.9539 24.9679 18.5581 24.9679Z" fill="#00B5DF"/>
<path fill-rule="evenodd" clip-rule="evenodd" d="M18.5581 17.3545C19.1579 17.3545 19.6457 17.8423 19.6457 18.4421C19.6457 19.042 19.1579 19.5298 18.5581 19.5298C17.9583 19.5298 17.4705 19.042 17.4705 18.4421C17.4705 17.8423 17.9583 17.3545 18.5581 17.3545ZM18.5581 20.6174C19.7594 20.6174 20.7334 19.6434 20.7334 18.4421C20.7334 17.2408 19.7594 16.2668 18.5581 16.2668C17.3568 16.2668 16.3828 17.2408 16.3828 18.4421C16.3828 19.6434 17.3568 20.6174 18.5581 20.6174Z" fill="#00B5DF"/>
<path fill-rule="evenodd" clip-rule="evenodd" d="M18.558 15.4512C18.8582 15.4512 19.1018 15.2075 19.1018 14.9073C19.1018 14.6072 18.8582 14.3635 18.558 14.3635C18.2578 14.3635 18.0142 14.6072 18.0142 14.9073C18.0142 15.2075 18.2578 15.4512 18.558 15.4512Z" fill="#00B5DF"/>
<path fill-rule="evenodd" clip-rule="evenodd" d="M18.558 21.4331C18.2578 21.4331 18.0142 21.6767 18.0142 21.9769C18.0142 22.2771 18.2578 22.5207 18.558 22.5207C18.8582 22.5207 19.1018 22.2771 19.1018 21.9769C19.1018 21.6767 18.8582 21.4331 18.558 21.4331Z" fill="#00B5DF"/>
<path fill-rule="evenodd" clip-rule="evenodd" d="M22.0926 18.9861C22.3928 18.9861 22.6365 18.7424 22.6365 18.4423C22.6365 18.1421 22.3928 17.8984 22.0926 17.8984C21.7925 17.8984 21.5488 18.1421 21.5488 18.4423C21.5488 18.7424 21.7925 18.9861 22.0926 18.9861Z" fill="#00B5DF"/>
<path fill-rule="evenodd" clip-rule="evenodd" d="M15.0233 18.9861C15.3235 18.9861 15.5671 18.7424 15.5671 18.4423C15.5671 18.1421 15.3235 17.8984 15.0233 17.8984C14.7231 17.8984 14.4795 18.1421 14.4795 18.4423C14.4795 18.7424 14.7231 18.9861 15.0233 18.9861Z" fill="#00B5DF"/>
<path fill-rule="evenodd" clip-rule="evenodd" d="M18.5578 6.75C15.817 6.75 13.2985 7.6957 11.3052 9.27495L12.0828 10.0526C13.8755 8.66588 16.1212 7.83764 18.5578 7.83764C24.4052 7.83764 29.1623 12.5947 29.1623 18.4421C29.1623 24.2895 24.4052 29.0466 18.5578 29.0466C16.1433 29.0466 13.9158 28.2339 12.1312 26.8697L11.3536 27.6474C13.3393 29.2038 15.8393 30.1342 18.5578 30.1342C25.0151 30.1342 30.2499 24.8994 30.2499 18.4421C30.2499 11.9848 25.0151 6.75 18.5578 6.75Z" fill="#00B5DF"/>
</svg>
