<svg width="11" height="10" viewBox="0 0 11 10" fill="none" xmlns="http://www.w3.org/2000/svg">
<path d="M4.98739 10C2.24433 10 0 7.75568 0 5.01261C0 3.32937 0.810451 1.77081 2.24433 0.835671C3.6782 -0.0994649 5.42379 -0.286492 7.10703 0.461617L6.85766 1.0227C5.36144 0.399274 3.80289 0.523959 2.55604 1.33441C1.37153 2.2072 0.623424 3.57874 0.623424 5.01261C0.623424 7.44396 2.55604 9.37658 4.98739 9.37658C6.29658 9.37658 7.54343 8.8155 8.35388 7.81802C9.16433 6.82054 9.53838 5.51135 9.28901 4.20216L9.91244 4.07747C10.2242 5.57369 9.78775 7.06991 8.85262 8.25441C7.85514 9.31423 6.48361 10 4.98739 10Z" fill="#7C87A1"/>
<path d="M4.67579 7.00744L2.55615 4.95014L3.05489 4.45141L4.67579 6.13465L10.0372 0.14978L10.536 0.523834L4.67579 7.00744Z" fill="#7C87A1"/>
</svg>
