<svg width="37" height="36" viewBox="0 0 37 36" fill="none" xmlns="http://www.w3.org/2000/svg">
<path d="M18.2002 36C28.1413 36 36.2002 27.9411 36.2002 18C36.2002 8.05887 28.1413 0 18.2002 0C8.25907 0 0.200195 8.05887 0.200195 18C0.200195 27.9411 8.25907 36 18.2002 36Z" fill="#DCF1F7"/>
<path d="M9.27377 24.1656H22.3438L28.4266 16.5225L30.1452 15.9798L30.8914 16.726C31.0723 16.9069 31.3436 16.9069 31.5245 16.726C31.7054 16.5451 31.7054 16.2738 31.5245 16.0929L30.3939 14.9622L28.1553 15.6632C28.0874 15.6632 28.0196 15.6858 27.9517 15.7311L21.7559 17.6758L19.0876 15.0075H15.5148V13.8768C15.5148 13.8542 15.5148 13.8542 15.5148 13.8316H16.6455C16.8942 13.8316 17.0977 13.6281 17.0977 13.3794C17.0977 13.1306 16.8942 12.9271 16.6455 12.9271H13.3666C13.1179 12.9271 12.9144 13.1306 12.9144 13.3794C12.9144 13.6281 13.1179 13.8316 13.3666 13.8316H14.6103C14.6103 13.8542 14.6103 13.8542 14.6103 13.8768V15.0075H10.1331L10.1783 13.6055L6.13063 12L5 14.8718L9.27377 16.5677V24.1656ZM10.1783 15.912H18.7258L21.4846 18.6707L26.889 16.9748L21.9142 23.2384H10.1783V15.912ZM9.20594 15.5728L6.17585 14.3743L6.65072 13.1759L9.25116 14.216L9.20594 15.5728Z" fill="#00B5DF"/>
<path d="M30.4619 20.0727C30.2132 20.5024 30.2132 20.9998 30.4619 21.4295C30.7107 21.8591 31.1403 22.1079 31.6378 22.1079C32.1353 22.1079 32.5649 21.8591 32.8137 21.4295C33.0624 20.9998 33.0624 20.5024 32.8137 20.0727L31.6378 18.0376L30.4619 20.0727ZM32.0222 20.9772C31.977 21.0451 31.8639 21.2034 31.6378 21.2034C31.4117 21.2034 31.2986 21.0451 31.2534 20.9772C31.2082 20.9094 31.1403 20.7285 31.2534 20.525L31.6378 19.8466L32.0222 20.525C32.1579 20.7285 32.0674 20.9094 32.0222 20.9772Z" fill="#00B5DF"/>
</svg>
