<svg width="36" height="36" viewBox="0 0 36 36" fill="none" xmlns="http://www.w3.org/2000/svg">
<path d="M18 36C27.9411 36 36 27.9411 36 18C36 8.05887 27.9411 0 18 0C8.05887 0 0 8.05887 0 18C0 27.9411 8.05887 36 18 36Z" fill="#DCF1F7"/>
<path d="M23.7223 10.8888C23.9531 10.8888 24.1787 10.8204 24.3705 10.6922C24.5624 10.564 24.7119 10.3818 24.8002 10.1686C24.8885 9.95539 24.9116 9.72081 24.8666 9.4945C24.8216 9.26818 24.7105 9.0603 24.5473 8.89713C24.3842 8.73397 24.1763 8.62285 23.95 8.57784C23.7236 8.53282 23.4891 8.55593 23.2759 8.64423C23.0627 8.73253 22.8805 8.88207 22.7523 9.07393C22.6241 9.26579 22.5557 9.49136 22.5557 9.7221C22.5557 10.0315 22.6786 10.3283 22.8974 10.5471C23.1162 10.7659 23.4129 10.8888 23.7223 10.8888ZM23.7223 9.33321C23.7993 9.33321 23.8745 9.35602 23.9384 9.39875C24.0024 9.44148 24.0522 9.50222 24.0816 9.57328C24.1111 9.64434 24.1188 9.72254 24.1038 9.79797C24.0888 9.87341 24.0517 9.94271 23.9973 9.9971C23.943 10.0515 23.8737 10.0885 23.7982 10.1035C23.7228 10.1185 23.6446 10.1108 23.5735 10.0814C23.5025 10.052 23.4417 10.0021 23.399 9.93816C23.3563 9.87421 23.3335 9.79902 23.3335 9.7221C23.3335 9.61896 23.3744 9.52005 23.4474 9.44711C23.5203 9.37418 23.6192 9.33321 23.7223 9.33321Z" fill="#00B5DF"/>
<path d="M25.278 12.7233V11.942C25.454 11.8232 25.6153 11.6841 25.7586 11.5274L26.9965 11.1148C27.2887 11.0173 27.5429 10.8304 27.723 10.5804C27.9031 10.3305 28 10.0302 28 9.72218C28 9.41411 27.9031 9.11385 27.723 8.86392C27.5429 8.61398 27.2887 8.42703 26.9965 8.32954L25.759 7.91693C25.5038 7.62866 25.1902 7.39787 24.8392 7.2398C24.4881 7.08174 24.1074 7 23.7224 7C23.3374 7 22.9567 7.08174 22.6056 7.2398C22.2545 7.39787 21.941 7.62866 21.6857 7.91693L20.4483 8.32954C20.1561 8.42703 19.9019 8.61398 19.7218 8.86392C19.5417 9.11385 19.4448 9.41411 19.4448 9.72218C19.4448 10.0302 19.5417 10.3305 19.7218 10.5804C19.9019 10.8304 20.1561 11.0173 20.4483 11.1148L21.6861 11.5274C21.8294 11.6841 21.9908 11.8232 22.1668 11.942V12.9197L19.5682 15.5167L18.5528 14.5013C18.4799 14.4284 18.381 14.3874 18.2779 14.3874C18.1747 14.3874 18.0758 14.4284 18.0029 14.5013L8.66944 23.8348C8.59653 23.9077 8.55557 24.0066 8.55557 24.1097C8.55557 24.2129 8.59653 24.3118 8.66944 24.3847L9.56117 25.278L7.11386 27.7253C7.06894 27.7702 7.03571 27.8255 7.01709 27.8862C6.99846 27.947 6.995 28.0114 7.00701 28.0737C7.01902 28.1361 7.04613 28.1946 7.08598 28.2441C7.12583 28.2936 7.17719 28.3326 7.23558 28.3576L9.95785 29.5243C10.0062 29.5452 10.0584 29.5559 10.1111 29.5558C10.2142 29.5558 10.3131 29.5148 10.386 29.4419L12.0555 27.7723L12.9473 28.6641C13.0202 28.737 13.1191 28.7779 13.2222 28.7779C13.3253 28.7779 13.4242 28.737 13.4972 28.6641L22.8307 19.3306C22.9036 19.2577 22.9445 19.1588 22.9445 19.0557C22.9445 18.9525 22.9036 18.8536 22.8307 18.7807L21.7666 17.7167L24.2688 15.1819C24.9172 14.5282 25.2801 13.6441 25.278 12.7233V12.7233ZM22.0346 10.8239L20.6945 10.3775C20.5569 10.3316 20.4372 10.2437 20.3524 10.1261C20.2677 10.0085 20.222 9.86717 20.222 9.72218C20.222 9.57719 20.2677 9.43587 20.3524 9.31826C20.4372 9.20065 20.5569 9.1127 20.6945 9.06689L22.0346 8.62044C22.1047 8.59717 22.1668 8.55441 22.2135 8.49716C22.3956 8.27246 22.6255 8.09127 22.8866 7.96681C23.1476 7.84235 23.4332 7.77776 23.7224 7.77776C24.0116 7.77776 24.2972 7.84235 24.5582 7.96681C24.8193 8.09127 25.0492 8.27246 25.2313 8.49716C25.278 8.55441 25.3401 8.59717 25.4102 8.62044L26.7503 9.06689C26.8879 9.1127 27.0075 9.20065 27.0923 9.31826C27.1771 9.43587 27.2228 9.57719 27.2228 9.72218C27.2228 9.86717 27.1771 10.0085 27.0923 10.1261C27.0075 10.2437 26.8879 10.3316 26.7503 10.3775L25.4102 10.8239C25.3402 10.8472 25.2783 10.89 25.2317 10.9472C25.0818 11.1303 24.8998 11.2846 24.6946 11.4026C24.5652 11.4768 24.4273 11.5353 24.284 11.5768C23.9181 11.6861 23.5283 11.6861 23.1624 11.5768C23.019 11.5353 22.8812 11.4768 22.7517 11.4026C22.5463 11.2847 22.364 11.1304 22.2139 10.9472C22.1671 10.8899 22.1049 10.8471 22.0346 10.8239ZM10.022 28.7057L8.07015 27.8692L10.1111 25.8279L11.5056 27.2224L10.022 28.7057ZM22.0058 19.0557L13.2222 27.8392L12.3305 26.9475L10.386 25.003L9.49428 24.1113L18.2779 15.3277L22.0058 19.0557ZM21.2506 17.1322L20.1519 16.0339L22.8307 13.3556C22.9036 13.2827 22.9446 13.1838 22.9446 13.0807V12.3278C22.9563 12.3313 22.9687 12.3324 22.9804 12.3359C23.0675 12.3598 23.1557 12.3793 23.2448 12.3943C23.2779 12.4005 23.3098 12.4094 23.3428 12.4141C23.5944 12.4525 23.8504 12.4525 24.102 12.4141C24.135 12.4094 24.1669 12.4005 24.2 12.3947C24.2886 12.3783 24.3773 12.3608 24.4644 12.3359C24.4761 12.3324 24.4885 12.3313 24.5002 12.3278V12.7217C24.5018 13.438 24.2194 14.1257 23.715 14.6343L21.2506 17.1322Z" fill="#00B5DF"/>
<path d="M21.7783 9.33325H21.0005V10.111H21.7783V9.33325Z" fill="#00B5DF"/>
<path d="M26.4448 9.33325H25.667V10.111H26.4448V9.33325Z" fill="#00B5DF"/>
<path d="M15.2811 19.5585L10.6143 24.2253L11.1642 24.7753L15.8311 20.1085L15.2811 19.5585Z" fill="#00B5DF"/>
<path d="M16.4476 18.3918L15.6699 19.1694L16.2199 19.7194L16.9976 18.9417L16.4476 18.3918Z" fill="#00B5DF"/>
</svg>
