<svg width="36" height="36" viewBox="0 0 36 36" fill="none" xmlns="http://www.w3.org/2000/svg">
<path d="M18 36C27.9411 36 36 27.9411 36 18C36 8.05887 27.9411 0 18 0C8.05887 0 0 8.05887 0 18C0 27.9411 8.05887 36 18 36Z" fill="#DCF1F7"/>
<path d="M13.2578 6.69769L13.6447 5.53711H17.5133L17.9001 6.69769" stroke="#00B5DF" stroke-miterlimit="10" stroke-linecap="round" stroke-linejoin="round"/>
<path d="M17.9001 6.89087H13.2578V9.0186H17.9001V6.89087Z" stroke="#00B5DF" stroke-miterlimit="10" stroke-linecap="round" stroke-linejoin="round"/>
<path d="M13.8375 9.59937C13.8375 9.59937 13.8375 10.3731 13.0638 10.3731C12.29 10.3731 12.29 11.1468 12.29 11.1468V19.6577C12.29 19.6577 12.29 25.6541 12.29 27.5884C12.29 29.5227 14.2243 29.5227 14.2243 29.5227H23.3156C23.3156 29.5227 25.2499 29.5227 25.2499 27.5884C25.2499 25.6541 25.2499 19.0774 25.2499 19.0774C25.2499 17.3366 23.3156 15.5957 23.3156 15.5957L18.0929 10.3731C17.3192 10.3731 17.3192 9.59937 17.3192 9.59937" stroke="#00B5DF" stroke-miterlimit="10" stroke-linecap="round" stroke-linejoin="round"/>
<path d="M16.1581 15.2305C14.9976 15.2305 14.9976 16.3911 14.9976 16.3911C14.9976 16.3911 14.9976 24.3217 14.9976 25.4823C14.9976 26.6429 16.1581 26.6429 16.1581 26.6429H21.5742C21.5742 26.6429 22.7348 26.6429 22.7348 25.4823C22.7348 24.3217 22.7348 20.4531 22.7348 20.4531C22.7348 19.4086 21.5742 18.3254 21.5742 18.3254L18.4793 15.2305H16.1581Z" stroke="#00B5DF" stroke-miterlimit="10" stroke-linecap="round" stroke-linejoin="round"/>
</svg>
